<svg width="10" height="10" viewBox="0 0 10 10" fill="none" xmlns="http://www.w3.org/2000/svg">
<g clip-path="url(#clip0_127_1748)">
<path fill-rule="evenodd" clip-rule="evenodd" d="M4.44532 0.377922L5.70939 1.10773L1.61116 3.47384V5.22714C1.61116 5.2972 1.64589 5.35736 1.70657 5.3924L2.65653 5.94085C2.68687 5.95837 2.72159 5.95837 2.75194 5.94085C2.78228 5.92333 2.79964 5.89325 2.79964 5.85823V4.16001L6.89788 1.7939L8.16194 2.5237C8.28329 2.59376 8.35277 2.71407 8.35277 2.85419V5.04736C8.00958 4.93159 7.64646 4.86915 7.28376 4.84702V4.69999C7.28376 4.5398 7.19232 4.39615 7.04716 4.32837C6.90206 4.26062 6.73318 4.28269 6.61036 4.38546L5.1553 5.60329C5.0346 5.70431 4.96864 5.85161 4.97368 6.00892C4.97872 6.16689 5.05343 6.30864 5.18085 6.40214L6.63101 7.46607C6.75624 7.55794 6.92044 7.57144 7.059 7.50124C7.19769 7.43097 7.28378 7.29085 7.28378 7.13538V6.97304C7.5856 7.00904 7.88437 7.10183 8.1297 7.27945C8.1773 7.3139 8.22241 7.35142 8.26441 7.39175C8.23632 7.42466 8.20196 7.4532 8.16198 7.47628L4.44532 9.62206C4.32398 9.69212 4.18505 9.69212 4.0637 9.62206L0.347101 7.47628C0.225734 7.40622 0.156281 7.28591 0.156281 7.14577V2.85421C0.156281 2.71407 0.225734 2.59376 0.347101 2.52372L4.06372 0.377922C4.18507 0.307864 4.32398 0.307864 4.44532 0.377922ZM6.97126 6.64243C9.01208 6.64243 9.59044 8.59165 7.91413 9.46777C7.90493 9.47253 7.90101 9.48353 7.90523 9.49298C7.90917 9.50179 7.91851 9.50646 7.92786 9.50411C10.7129 8.81907 10.5182 5.15013 6.97126 5.15013V4.69999C6.97126 4.66116 6.95011 4.62794 6.91493 4.61152C6.87976 4.59509 6.84071 4.60019 6.81093 4.62511L5.35587 5.84296C5.30829 5.88279 5.28403 5.93697 5.28601 5.99898C5.288 6.06099 5.31567 6.11351 5.36569 6.15021L6.81585 7.21413C6.84628 7.23646 6.88409 7.23956 6.91775 7.22251C6.9514 7.20546 6.97126 7.17312 6.97126 7.1354V6.64243Z" fill="#BC4053"/>
</g>
<defs>
<clipPath id="clip0_127_1748">
<rect width="10" height="10" fill="white"/>
</clipPath>
</defs>
</svg>
