<svg width="10" height="10" viewBox="0 0 10 10" fill="none" xmlns="http://www.w3.org/2000/svg">
<path d="M8.25002 6.46661C7.78133 6.46661 7.40002 6.84802 7.40002 7.31661C7.40002 7.78531 7.78133 8.16661 8.25002 8.16661C8.71862 8.16661 9.10002 7.78531 9.10002 7.31661C9.10002 6.84802 8.71862 6.46661 8.25002 6.46661ZM8.25002 7.56661C8.11213 7.56661 8.00002 7.45451 8.00002 7.31661C8.00002 7.17872 8.11213 7.06661 8.25002 7.06661C8.38792 7.06661 8.50002 7.17872 8.50002 7.31661C8.50002 7.45451 8.38792 7.56661 8.25002 7.56661Z" fill="#BC4053"/>
<path d="M8.1686 2.9333H6.7C6.58949 2.9333 6.5 3.02291 6.5 3.1333V7.0333C6.5 7.1437 6.58949 7.2333 6.7 7.2333H6.91211C7.01111 7.2333 7.09881 7.162 7.1116 7.06381C7.1901 6.46241 7.6698 6.08942 8.2501 6.08942C8.83039 6.08942 9.3101 6.46242 9.38859 7.06381C9.40139 7.16201 9.48899 7.2333 9.58809 7.2333H9.79998C9.91038 7.2333 9.99998 7.1437 9.99998 7.0333V5.0833C9.99998 5.03631 9.98348 4.9909 9.95338 4.955L8.32198 3.005C8.284 2.95961 8.22779 2.9333 8.1686 2.9333ZM6.9 4.5333V3.5333C6.9 3.42291 6.98949 3.3333 7.1 3.3333H7.981C8.04029 3.3333 8.0966 3.35971 8.13459 3.4053L8.96789 4.4053C9.07639 4.53559 8.98379 4.7333 8.8142 4.7333H7.1C6.98949 4.7333 6.9 4.64381 6.9 4.5333Z" fill="#BC4053"/>
<path d="M0.2 7.2334H0.712108C0.811111 7.2334 0.898807 7.1621 0.911601 7.06391C0.990098 6.46251 1.4698 6.08952 2.0501 6.08952C2.63039 6.08952 3.1101 6.46252 3.18859 7.06391C3.20139 7.16211 3.28899 7.2334 3.38809 7.2334H5.9C6.01041 7.2334 6.1 7.1438 6.1 7.0334V2.0334C6.1 1.92301 6.01039 1.8334 5.9 1.8334H0.2C0.0894935 1.8334 0 1.92301 0 2.0334V7.0334C0 7.14381 0.0894935 7.2334 0.2 7.2334Z" fill="#BC4053"/>
<path d="M2.05001 6.46661C1.58132 6.46661 1.20001 6.84802 1.20001 7.31661C1.20001 7.78531 1.58132 8.16661 2.05001 8.16661C2.51861 8.16661 2.90001 7.78531 2.90001 7.31661C2.90001 6.84802 2.51861 6.46661 2.05001 6.46661ZM2.05001 7.56661C1.91212 7.56661 1.80001 7.45451 1.80001 7.31661C1.80001 7.17872 1.91212 7.06661 2.05001 7.06661C2.1879 7.06661 2.30001 7.17872 2.30001 7.31661C2.30001 7.45451 2.1879 7.56661 2.05001 7.56661Z" fill="#BC4053"/>
</svg>
