<svg width="20" height="20" viewBox="0 0 20 20" fill="none" xmlns="http://www.w3.org/2000/svg">
<g clip-path="url(#clip0_82_780)">
<path fill-rule="evenodd" clip-rule="evenodd" d="M0.476717 1.70484C0.127254 1.58197 -0.255642 1.76567 -0.378506 2.11513C-0.50137 2.46459 -0.317675 2.84749 0.0317874 2.97035L0.265387 3.05248C0.86243 3.26239 1.25481 3.4015 1.54353 3.54316C1.8147 3.67622 1.93424 3.78392 2.01299 3.89916C2.09371 4.01729 2.15605 4.17953 2.19122 4.50448C2.22803 4.8445 2.22894 5.28737 2.22894 5.9491V8.38307C2.22894 9.68206 2.24113 10.6187 2.3637 11.3344C2.49455 12.0984 2.75581 12.6454 3.2443 13.1606C3.77539 13.7208 4.44863 13.9646 5.25014 14.0783C6.01765 14.1871 6.99231 14.1871 8.19578 14.1871L13.0301 14.1871C13.6934 14.1871 14.2515 14.1871 14.7031 14.1319C15.1822 14.0732 15.6192 13.945 16.0006 13.6342C16.382 13.3234 16.5957 12.9213 16.7499 12.4639C16.8952 12.0328 17.0078 11.4862 17.1417 10.8366L17.5968 8.62824L17.5977 8.62413L17.607 8.57737C17.7543 7.83968 17.8782 7.21913 17.909 6.72001C17.9413 6.19577 17.8817 5.67885 17.5402 5.23493C17.33 4.96179 17.0346 4.80717 16.7659 4.71274C16.4918 4.61643 16.1819 4.56072 15.8691 4.52575C15.2546 4.45707 14.5082 4.45708 13.7761 4.45709L3.53444 4.45709C3.5315 4.42422 3.52832 4.3919 3.52488 4.36012C3.47683 3.9162 3.37272 3.51134 3.12055 3.14231C2.8664 2.77041 2.52849 2.53222 2.13444 2.33887C1.7659 2.15804 1.29762 1.99343 0.746258 1.7996L0.476717 1.70484ZM3.57038 5.79854H13.7482C14.5141 5.79854 15.1881 5.79944 15.72 5.8589C15.9844 5.88845 16.1822 5.9295 16.3212 5.97834C16.4348 6.01826 16.4732 6.05086 16.4788 6.05557C16.4787 6.05547 16.479 6.05577 16.4788 6.05557C16.5336 6.12838 16.5933 6.26046 16.5701 6.63737C16.5456 7.03405 16.4414 7.56371 16.2826 8.35958L16.2822 8.36156L15.8361 10.5259C15.6918 11.226 15.5947 11.6913 15.4787 12.0355C15.3686 12.3623 15.2651 12.5031 15.1532 12.5943C15.0412 12.6856 14.8824 12.7585 14.5401 12.8003C14.1796 12.8445 13.7042 12.8456 12.9894 12.8456H8.24704C6.98002 12.8456 6.10086 12.8441 5.43848 12.7501C4.79922 12.6595 4.46151 12.4947 4.21778 12.2376C3.93145 11.9356 3.77702 11.6399 3.68589 11.1079C3.58648 10.5275 3.57039 9.71472 3.57039 8.38307L3.57038 5.79854Z" fill="#BC4053"/>
<path fill-rule="evenodd" clip-rule="evenodd" d="M5.17291 19.1057C4.06161 19.1057 3.16073 18.2049 3.16073 17.0936C3.16073 15.9823 4.06161 15.0814 5.17291 15.0814C6.2842 15.0814 7.18508 15.9823 7.18508 17.0936C7.18508 18.2049 6.2842 19.1057 5.17291 19.1057ZM4.50218 17.0936C4.50218 17.464 4.80248 17.7643 5.17291 17.7643C5.54334 17.7643 5.84363 17.464 5.84363 17.0936C5.84363 16.7231 5.54334 16.4228 5.17291 16.4228C4.80248 16.4228 4.50218 16.7231 4.50218 17.0936Z" fill="#BC4053"/>
<path fill-rule="evenodd" clip-rule="evenodd" d="M13.2216 19.1058C12.1103 19.1058 11.2094 18.2049 11.2094 17.0936C11.2094 15.9823 12.1103 15.0815 13.2216 15.0815C14.3329 15.0815 15.2338 15.9823 15.2338 17.0936C15.2338 18.2049 14.3329 19.1058 13.2216 19.1058ZM12.5509 17.0936C12.5509 17.4641 12.8512 17.7644 13.2216 17.7644C13.592 17.7644 13.8923 17.4641 13.8923 17.0936C13.8923 16.7232 13.592 16.4229 13.2216 16.4229C12.8512 16.4229 12.5509 16.7232 12.5509 17.0936Z" fill="#BC4053"/>
</g>
<defs>
<clipPath id="clip0_82_780">
<rect width="20" height="20" fill="white"/>
</clipPath>
</defs>
</svg>
