<svg width="16" height="17" viewBox="0 0 16 17" fill="none" xmlns="http://www.w3.org/2000/svg">
<path d="M5.99999 8.49998C5.99999 8.86817 5.70152 9.16665 5.33333 9.16665C4.96514 9.16665 4.66666 8.86817 4.66666 8.49998C4.66666 8.13179 4.96514 7.83331 5.33333 7.83331C5.70152 7.83331 5.99999 8.13179 5.99999 8.49998Z" fill="#BC4053"/>
<path d="M8.66666 8.49998C8.66666 8.86817 8.36818 9.16665 7.99999 9.16665C7.6318 9.16665 7.33333 8.86817 7.33333 8.49998C7.33333 8.13179 7.6318 7.83331 7.99999 7.83331C8.36818 7.83331 8.66666 8.13179 8.66666 8.49998Z" fill="#BC4053"/>
<path d="M11.3333 8.49998C11.3333 8.86817 11.0349 9.16665 10.6667 9.16665C10.2985 9.16665 9.99999 8.86817 9.99999 8.49998C9.99999 8.13179 10.2985 7.83331 10.6667 7.83331C11.0349 7.83331 11.3333 8.13179 11.3333 8.49998Z" fill="#BC4053"/>
<path fill-rule="evenodd" clip-rule="evenodd" d="M15.1667 8.49998C15.1667 4.54194 11.958 1.33331 7.99999 1.33331C4.04195 1.33331 0.833328 4.54194 0.833328 8.49998C0.833328 9.64552 1.10247 10.7296 1.58141 11.6912C1.65288 11.8347 1.66804 11.9812 1.63506 12.1045L1.23799 13.5885C0.966178 14.6044 1.89557 15.5338 2.91146 15.262L4.39549 14.8649C4.51875 14.8319 4.66527 14.8471 4.80876 14.9186C5.77034 15.3975 6.85446 15.6666 7.99999 15.6666C11.958 15.6666 15.1667 12.458 15.1667 8.49998ZM7.99999 2.33331C11.4058 2.33331 14.1667 5.09422 14.1667 8.49998C14.1667 11.9057 11.4058 14.6666 7.99999 14.6666C7.01262 14.6666 6.0808 14.435 5.2546 14.0234C4.923 13.8583 4.52648 13.7947 4.13701 13.8989L2.65299 14.296C2.38044 14.3689 2.13108 14.1195 2.20401 13.847L2.60108 12.363C2.70529 11.9735 2.64169 11.577 2.47653 11.2454C2.06501 10.4192 1.83333 9.48735 1.83333 8.49998C1.83333 5.09422 4.59424 2.33331 7.99999 2.33331Z" fill="#BC4053"/>
</svg>
