<svg width="16" height="16" viewBox="0 0 16 16" fill="none" xmlns="http://www.w3.org/2000/svg">
<path d="M13.1539 7.99705V15.5311C13.1539 15.7936 12.9476 16 12.685 16H3.30654C3.04391 16 2.83762 15.7936 2.83762 15.5311V8.72853C2.83762 8.55972 2.93137 8.4097 3.07208 8.32526L4.33814 7.59377C4.4132 7.54685 4.4976 7.52812 4.5726 7.52812H6.589L7.99577 8.72853L9.40254 7.52812H12.685C12.9476 7.52812 13.1539 7.73442 13.1539 7.99705Z" fill="#E63950"/>
<path d="M13.1539 7.99705V15.5311C13.1539 15.7936 12.9476 16 12.685 16H7.99579V8.72853L9.40256 7.52812H12.685C12.9476 7.52812 13.1539 7.73442 13.1539 7.99705Z" fill="#D0004F"/>
<path d="M8.31468 0.938184C8.23024 0.788097 8.1177 0.647451 7.99578 0.544226C7.77069 0.309764 7.48937 0.150362 7.17985 0.0659867C6.69214 -0.0653117 6.18573 0.000337463 5.75429 0.253525C5.15407 0.60059 4.79772 1.24764 4.81645 1.94168C4.82583 2.03546 4.87272 3.42973 4.87272 3.42973C4.76956 3.37346 3.70041 2.70756 3.70041 2.70756C3.57849 2.65128 2.73446 2.01355 1.69345 2.62312C1.26201 2.87637 0.952521 3.27961 0.821191 3.75794C0.689924 4.24565 0.755605 4.75206 1.00876 5.1835C1.52458 6.0838 2.67816 6.38391 3.56911 5.8681L4.77643 5.17103L3.0945 5.05889C2.95307 5.13961 2.79367 5.18209 2.63239 5.18209C2.29717 5.18209 1.98672 5.00397 1.82231 4.71683C1.69136 4.49381 1.66019 4.24928 1.72659 4.002C1.79208 3.76432 1.94914 3.56056 2.16803 3.43232C2.32099 3.34257 2.46661 3.29906 2.6127 3.29906C2.85541 3.29906 3.05642 3.41766 3.16406 3.48131L3.22358 3.5152C3.37057 3.60679 4.32398 4.19842 4.4229 4.25247L4.45816 4.2717L4.45019 4.27629L4.46316 4.27685L5.58858 4.93335L5.80741 3.49532L5.81282 3.47828L5.81 3.39753C5.81 3.39753 5.75917 1.94377 5.7491 1.84577C5.74407 1.5646 5.92448 1.23854 6.22353 1.06545C6.36961 0.979824 6.52348 0.937684 6.68558 0.937684C6.76892 0.937684 6.85317 0.949125 6.93651 0.971571C7.08716 1.01277 7.21768 1.0879 7.31934 1.19412L7.38987 1.26052C7.41644 1.2825 7.45992 1.33152 7.49656 1.39698C7.72096 1.77615 7.65181 2.27924 7.34316 2.57782C7.29233 2.62406 7.22546 2.67445 7.16456 2.70924L7.11795 2.73616L6.99269 3.89137L7.62992 3.52345C7.76122 3.44842 7.88317 3.35464 7.99568 3.25151C8.596 2.67007 8.76481 1.69784 8.31468 0.938184Z" fill="#FED843"/>
<path d="M6.58902 7.52812V12.7175C6.58902 12.9051 6.70156 13.0739 6.87975 13.1489C7.04856 13.224 7.25492 13.1865 7.38616 13.0458L7.99579 12.4455L8.60542 13.0458C8.73669 13.1865 8.94305 13.2239 9.11183 13.1489C9.29002 13.0739 9.40256 12.9051 9.40256 12.7175V7.52812H6.58902Z" fill="#FED843"/>
<path d="M15.5298 5.65243H15.0609V5.18351C15.0609 4.92432 14.8512 4.71458 14.592 4.71458C14.3328 4.71458 14.1231 4.92432 14.1231 5.18351V5.65243H13.6541C13.3949 5.65243 13.1852 5.86216 13.1852 6.12135C13.1852 6.38054 13.3949 6.59028 13.6541 6.59028H14.1231V7.0592C14.1231 7.31839 14.3328 7.52812 14.592 7.52812C14.8512 7.52812 15.0609 7.31839 15.0609 7.0592V6.59028H15.5298C15.789 6.59028 15.9987 6.38054 15.9987 6.12135C15.9987 5.86216 15.789 5.65243 15.5298 5.65243Z" fill="#FFB64C"/>
<path d="M13.6229 3.77673C13.8818 3.77673 14.0918 3.56678 14.0918 3.30781C14.0918 3.04883 13.8818 2.83888 13.6229 2.83888C13.3639 2.83888 13.1539 3.04883 13.1539 3.30781C13.1539 3.56678 13.3639 3.77673 13.6229 3.77673Z" fill="#FFB64C"/>
<path d="M11.7472 6.59027C12.0062 6.59027 12.2161 6.38032 12.2161 6.12134C12.2161 5.86236 12.0062 5.65242 11.7472 5.65242C11.4882 5.65242 11.2783 5.86236 11.2783 6.12134C11.2783 6.38032 11.4882 6.59027 11.7472 6.59027Z" fill="#FFB64C"/>
<path d="M7.99579 7.52812H9.40256V12.7175C9.40256 12.9051 9.29002 13.0739 9.11183 13.1489C8.94301 13.224 8.73666 13.1865 8.60542 13.0458L7.99579 12.4455V7.52812Z" fill="#FFB64C"/>
<path d="M7.99579 3.25153V0.54425C8.11771 0.647445 8.23025 0.78809 8.31469 0.938177C8.76482 1.69783 8.59601 2.6701 7.99579 3.25153Z" fill="#FFB64C"/>
<path d="M12.0567 3.68291L10.6499 1.24451C10.5186 1.01943 10.2279 0.944402 10.0028 1.0757L7.99578 2.23863L7.72709 2.39362L2.39453 5.47042L0.258554 6.70281C0.0334705 6.82473 -0.0728187 7.11546 0.0584798 7.34054L1.49651 9.77894C1.62781 10.0041 1.90916 10.0791 2.13425 9.94773L7.99578 6.56213L11.8785 4.32065C12.1035 4.18941 12.1786 3.90806 12.0567 3.68291Z" fill="#FF641A"/>
<path d="M11.8785 4.32065L7.99579 6.5621V2.23863L10.0028 1.0757C10.2279 0.944402 10.5186 1.01943 10.6499 1.24451L12.0567 3.68288C12.1786 3.90806 12.1036 4.18938 11.8785 4.32065Z" fill="#E63950"/>
</svg>
