<svg width="16" height="17" viewBox="0 0 16 17" fill="none" xmlns="http://www.w3.org/2000/svg">
<path d="M14.3535 10.1465L13 8.793V7C12.9984 5.76092 12.5375 4.56642 11.7063 3.64749C10.8751 2.72856 9.73271 2.15047 8.5 2.025V1H7.5V2.025C6.26729 2.15047 5.12488 2.72856 4.29368 3.64749C3.46249 4.56642 3.00155 5.76092 3 7V8.793L1.6465 10.1465C1.55273 10.2402 1.50003 10.3674 1.5 10.5V12C1.5 12.1326 1.55268 12.2598 1.64645 12.3536C1.74021 12.4473 1.86739 12.5 2 12.5H5.5V12.8885C5.48912 13.5228 5.7127 14.1388 6.12789 14.6185C6.54308 15.0982 7.12068 15.4078 7.75 15.488C8.09759 15.5225 8.44854 15.4838 8.78029 15.3745C9.11204 15.2652 9.41724 15.0877 9.67626 14.8533C9.93528 14.619 10.1424 14.333 10.2843 14.0138C10.4261 13.6946 10.4996 13.3493 10.5 13V12.5H14C14.1326 12.5 14.2598 12.4473 14.3536 12.3536C14.4473 12.2598 14.5 12.1326 14.5 12V10.5C14.5 10.3674 14.4473 10.2402 14.3535 10.1465ZM9.5 13C9.5 13.3978 9.34196 13.7794 9.06066 14.0607C8.77936 14.342 8.39782 14.5 8 14.5C7.60218 14.5 7.22064 14.342 6.93934 14.0607C6.65804 13.7794 6.5 13.3978 6.5 13V12.5H9.5V13ZM13.5 11.5H2.5V10.707L3.8535 9.3535C3.94727 9.25975 3.99997 9.1326 4 9V7C4 5.93913 4.42143 4.92172 5.17157 4.17157C5.92172 3.42143 6.93913 3 8 3C9.06087 3 10.0783 3.42143 10.8284 4.17157C11.5786 4.92172 12 5.93913 12 7V9C12 9.1326 12.0527 9.25975 12.1465 9.3535L13.5 10.707V11.5Z" fill="#BC4053"/>
</svg>
