<svg width="10" height="10" viewBox="0 0 10 10" fill="none" xmlns="http://www.w3.org/2000/svg">
<path d="M8.4375 1.875C6.7 1.875 5.20938 0.706246 5.19375 0.693746C5.13858 0.65015 5.07032 0.626434 5 0.626434C4.92968 0.626434 4.86142 0.65015 4.80625 0.693746C4.79063 0.706246 3.30625 1.875 1.5625 1.875C1.47962 1.875 1.40013 1.90792 1.34153 1.96653C1.28292 2.02513 1.25 2.10462 1.25 2.1875V5C1.25 7.09687 2.09688 8.125 4.87188 9.34687C4.91216 9.36498 4.95583 9.37434 5 9.37434C5.04417 9.37434 5.08784 9.36498 5.12812 9.34687C7.90312 8.125 8.75 7.09687 8.75 5V2.1875C8.75 2.10462 8.71708 2.02513 8.65847 1.96653C8.59987 1.90792 8.52038 1.875 8.4375 1.875ZM5 7.5C4.50555 7.5 4.0222 7.35337 3.61107 7.07867C3.19995 6.80397 2.87952 6.41352 2.6903 5.95671C2.50108 5.49989 2.45157 4.99722 2.54804 4.51227C2.6445 4.02732 2.8826 3.58186 3.23223 3.23223C3.58186 2.8826 4.02732 2.6445 4.51227 2.54803C4.99723 2.45157 5.49989 2.50108 5.95671 2.6903C6.41352 2.87952 6.80397 3.19995 7.07867 3.61107C7.35338 4.02219 7.5 4.50554 7.5 5C7.5 5.66304 7.23661 6.29892 6.76777 6.76776C6.29893 7.2366 5.66304 7.5 5 7.5Z" fill="#BC4053"/>
<path d="M5.71562 4.15312L4.6875 5.18437L4.28437 4.77812C4.25523 4.74898 4.22064 4.72587 4.18257 4.7101C4.14451 4.69433 4.1037 4.68622 4.0625 4.68622C4.02129 4.68622 3.98049 4.69433 3.94242 4.7101C3.90435 4.72587 3.86976 4.74898 3.84062 4.77812C3.81148 4.80726 3.78837 4.84185 3.7726 4.87992C3.75683 4.91799 3.74872 4.95879 3.74872 5C3.74872 5.0412 3.75683 5.08201 3.7726 5.12007C3.78837 5.15814 3.81148 5.19273 3.84062 5.22187L4.46562 5.84687C4.49467 5.87616 4.52924 5.89941 4.56732 5.91528C4.6054 5.93114 4.64624 5.93931 4.6875 5.93931C4.72875 5.93931 4.7696 5.93114 4.80768 5.91528C4.84576 5.89941 4.88032 5.87616 4.90937 5.84687L6.15937 4.59687C6.18851 4.56773 6.21162 4.53314 6.22739 4.49507C6.24316 4.45701 6.25128 4.4162 6.25128 4.375C6.25128 4.33379 6.24316 4.29299 6.22739 4.25492C6.21162 4.21685 6.18851 4.18226 6.15937 4.15312C6.13023 4.12398 6.09564 4.10087 6.05757 4.0851C6.01951 4.06933 5.9787 4.06122 5.9375 4.06122C5.89629 4.06122 5.85549 4.06933 5.81742 4.0851C5.77935 4.10087 5.74476 4.12398 5.71562 4.15312Z" fill="#BC4053"/>
</svg>
