<svg width="24" height="16" viewBox="0 0 24 16" fill="none" xmlns="http://www.w3.org/2000/svg">
<path d="M17.0568 8.5752C14.6488 8.6328 14.6448 12.1624 17.052 12.2264C19.46 12.168 19.4632 8.64 17.0568 8.5752ZM16.4288 10.4032C16.4296 9.584 17.6752 9.5808 17.68 10.4C17.6768 11.2168 16.4352 11.22 16.4288 10.4032Z" fill="black"/>
<path d="M12.256 7.4248C14.6632 7.364 14.6632 3.8344 12.256 3.7736C9.84796 3.8352 9.84956 7.3624 12.256 7.4248ZM12.256 4.9744C13.0744 4.9776 13.0744 6.2224 12.256 6.2256C11.4376 6.2216 11.4384 4.9792 12.256 4.9744Z" fill="black"/>
<path d="M18.552 4.1104C18.3176 3.8752 17.936 3.8744 17.7008 4.1088L10.7488 11.028C10.5096 11.2576 10.5024 11.6376 10.732 11.876C10.9664 12.1208 11.3592 12.1216 11.5952 11.8784L18.548 4.96C18.784 4.7264 18.7856 4.3464 18.552 4.1104Z" fill="black"/>
<path d="M7.08157 4.4296C6.75037 4.4296 6.48157 4.6984 6.48157 5.0296V6.568C6.48157 6.8992 6.75037 7.168 7.08157 7.168C7.41277 7.168 7.68157 6.8992 7.68157 6.568V5.0296C7.68157 4.6984 7.41277 4.4296 7.08157 4.4296Z" fill="black"/>
<path d="M7.08157 8.8328C6.75037 8.8328 6.48157 9.1016 6.48157 9.4328V10.9704C6.48157 11.3016 6.75037 11.5704 7.08157 11.5704C7.41277 11.5704 7.68157 11.3016 7.68157 10.9704V9.4328C7.68157 9.1016 7.41277 8.8328 7.08157 8.8328Z" fill="black"/>
<path d="M22.7032 6.0176C23.3808 5.6544 23.8024 4.9464 23.8 4.1776V2.12C23.7984 0.964 22.8624 0.0279996 21.7064 0.0263996H2.29357C1.13757 0.0279996 0.201569 0.964 0.199969 2.12V4.176C0.197569 4.9448 0.619169 5.6528 1.29677 6.016C2.39197 6.6024 2.80477 7.9656 2.21837 9.0608C2.00877 9.452 1.68797 9.7728 1.29677 9.9824C0.618369 10.3464 0.196769 11.0544 0.199969 11.824V13.88C0.201569 15.036 1.13757 15.972 2.29357 15.9736H21.7064C22.8624 15.972 23.7984 15.036 23.8 13.88V11.824C23.8024 11.0552 23.3808 10.3472 22.7032 9.984C21.132 9.1976 21.144 6.804 22.7032 6.0176ZM20.7272 9.6272C21.048 10.2264 21.5392 10.7176 22.1384 11.0384C22.4256 11.1936 22.6032 11.4944 22.6 11.8208V13.8768C22.5992 14.3704 22.2 14.7696 21.7064 14.7704H7.67997C7.64717 14.2504 7.88637 13.2552 7.07997 13.2352C6.27277 13.2544 6.51277 14.2544 6.47997 14.7736H2.29357C1.79997 14.7728 1.40077 14.3736 1.39997 13.88V11.824C1.39677 11.4976 1.57437 11.1968 1.86157 11.0416C3.54077 10.1424 4.17197 8.052 3.27277 6.3728C2.95197 5.7736 2.46077 5.2824 1.86157 4.9616C1.57437 4.8064 1.39677 4.5056 1.39997 4.1792V2.12C1.40077 1.6264 1.79997 1.2272 2.29357 1.2264H6.47997C6.51277 1.7472 6.27197 2.7448 7.07997 2.7648C7.88717 2.7456 7.64717 1.7456 7.67997 1.2264H21.7064C22.2 1.2272 22.5992 1.6264 22.6 2.12V4.176C22.6032 4.5024 22.4256 4.8032 22.1384 4.9584C20.4592 5.8576 19.8272 7.948 20.7272 9.6272Z" fill="black"/>
</svg>
