<svg xmlns="http://www.w3.org/2000/svg" width="69" height="70" fill="none" viewBox="0 0 69 70">
  <path fill="#FDC161" d="M43.77 23.583c-.294-.16-.594-.31-.9-.45a.68.68 0 01-.4-.41v-.2a.17.17 0 000-.12c.03-.44.09-.878.18-1.31.08-.28.17-.33.46-.37.29-.04.84 0 1.26-.1.42-.1.76-.44.49-.92-.27-.48-.43-.71-.63-1.07a.43.43 0 01.09-.61c.33-.34.67-.69 1-1 .33-.31.28-.2.53-.07s.7.4 1.06.59c.54.3.94.07.95-.55 0-.39 0-.78.05-1.18.05-.4.08-.4.42-.5.34-.1.92-.12 1.38-.2H50c.22 0 .31.2.4.38.09.18.32.55.44.83a.62.62 0 001.1.08c.21-.34.46-.67.69-1a.48.48 0 01.5-.21c.494.093.977.24 1.44.44a.4.4 0 01.27.41c-.005.415-.036.829-.09 1.24a.66.66 0 00.25.72.58.58 0 00.57.05c.41-.17.81-.35 1.22-.51a.42.42 0 01.6.16c.27.33.54.66.8 1 .26.34.19.35 0 .6s-.47.62-.7.93a.75.75 0 00.51 1.2c.41.09.84.16 1.26.24.21 0 .28.15.31.36 0 .38 0 .77.07 1.15v.45a.56.56 0 01-.33.29c-.36.12-.7.25-1 .38a.58.58 0 00-.37.33.87.87 0 00.29 1.16c.266.24.526.49.78.75a.39.39 0 01.13.46c-.193.429-.41.846-.65 1.25a.41.41 0 01-.48.19l-1.18-.26a.86.86 0 00-1 1c.09.41.2.81.3 1.23a.41.41 0 01-.21.49c-.37.23-.75.44-1.14.65a.38.38 0 01-.5-.08c-.25-.25-.52-.48-.75-.75a.9.9 0 00-1.08-.31.64.64 0 00-.45.42c-.12.34-.24.68-.34 1a.56.56 0 01-.34.39h-.71a7.034 7.034 0 00-.79 0c-.28 0-.35-.06-.41-.34s-.17-.8-.26-1.21a.82.82 0 00-1.29-.47c-.33.25-.63.53-1 .78a.41.41 0 01-.53 0c-.36-.25-.71-.52-1.05-.8a.45.45 0 01-.15-.62c.16-.39.31-.78.45-1.18a.72.72 0 00-.69-.95c-.42 0-.84.08-1.26.12-.42.04-.42 0-.54-.31-.12-.31-.27-.75-.41-1.12-.14-.37-.11-.51.23-.77s.67-.48 1-.74a.62.62 0 00-.14-1.03zm7.3 2.93a2.83 2.83 0 100-5.66 2.83 2.83 0 000 5.66z"/>
  <path fill="#EEA520" d="M31.85 15.553l-.57-.29a.42.42 0 01-.28-.26v-.13-.07c.02-.282.06-.563.12-.84.05-.18.1-.21.29-.24.19-.03.54 0 .81-.06s.48-.28.31-.59l-.4-.68a.27.27 0 01.05-.39l.66-.66c.13-.13.18-.13.34 0l.68.38c.34.19.6 0 .61-.35a6.339 6.339 0 010-.76c0-.23 0-.26.26-.32s.6-.08.89-.13h.13c.14 0 .2.13.26.25s.2.34.27.53a.4.4 0 00.71 0c.13-.22.29-.42.44-.63a.3.3 0 01.32-.14c.314.063.623.157.92.28a.25.25 0 01.17.27 7.13 7.13 0 010 .79.42.42 0 00.21.45.41.41 0 00.37 0l.78-.33c.19-.07.26-.05.38.1.12.15.35.43.51.65.16.22.13.22 0 .39s-.3.39-.44.59a.48.48 0 00.3.79l.81.15a.209.209 0 01.19.23c0 .25 0 .49.05.74v.28a.33.33 0 01-.21.19l-.67.24a.39.39 0 00-.24.21.57.57 0 00.18.75c.179.15.35.31.51.48a.27.27 0 01.08.29 7.593 7.593 0 01-.42.8.25.25 0 01-.3.12l-.76-.17a.55.55 0 00-.65.66c.06.27.13.53.19.79a.28.28 0 01-.13.32l-.73.41a.24.24 0 01-.32-.05c-.16-.16-.34-.31-.48-.48a.58.58 0 00-.69-.2.41.41 0 00-.3.27c-.07.22-.15.44-.21.66a.35.35 0 01-.22.25h-.43c-.17-.01-.34-.01-.51 0-.18 0-.22 0-.26-.21-.04-.21-.11-.52-.17-.78a.52.52 0 00-.82-.3l-.62.5a.27.27 0 01-.35 0c-.23-.16-.44-.33-.66-.51-.22-.18-.17-.21-.1-.39.07-.18.2-.51.29-.76a.46.46 0 00-.45-.61c-.26 0-.53 0-.8.08s-.27 0-.35-.2l-.26-.72c-.09-.25-.07-.33.15-.49.22-.16.43-.31.63-.48a.401.401 0 00-.07-.67zm4.67 1.88a1.81 1.81 0 100-3.62 1.81 1.81 0 000 3.62z"/>
  <path fill="#25AB99" d="M57.76 59.493a2 2 0 01-1.45-3.38 30.27 30.27 0 006.43-32.35c-4.58-11.63-15.25-19.02-28.53-19.76a2.003 2.003 0 01.22-4c14.88.84 26.86 9.17 32 22.3a34.19 34.19 0 01-7.23 36.57 2 2 0 01-1.44.62zM3.33 26.193c-.163 0-.324-.02-.48-.06a2 2 0 01-1.46-2.45C6.38 3.173 26.74.803 27 .783a2 2 0 012.19 1.81 1.998 1.998 0 01-1.78 2.23c-.79.08-17.84 2.18-22.14 19.83a2 2 0 01-1.94 1.54z"/>
  <path fill="#F6AC52" d="M17.76 41.873v2.27c-.05 2-.24 2-2.46 2.64-1.21.32-1.08.72-.44 1.42a25.338 25.338 0 007.9 5.73c.164.09.343.147.53.17v-11.29a19.814 19.814 0 01-5.53-.94z"/>
  <path fill="#F3BA63" d="M23.68 54.003a22.532 22.532 0 008.06-5.82c.68-.81.8-1.13-.45-1.38-.74-.15-1.76-.25-2.23-1a.4.4 0 01-.09-.17 8.32 8.32 0 01-.3-3.71 35.009 35.009 0 01-5.39.83v11.35a.73.73 0 00.4-.1z"/>
  <path fill="#FCCA75" d="M24 28.913h8.48c.92 0 1.17.28 1.11 1.19a40.162 40.162 0 01-.22 5.14 10.18 10.18 0 01-10.86 8.47 10.32 10.32 0 01-9.31-10.13c0-.53-.36-5.84 2.69-7.6.42-.24 3.79-1.78 4.42-1.17.77.76 3.06 4.09 3.69 4.1z"/>
  <path fill="#3BBCA6" d="M15.65 27.273c.197-.29.44-.547.72-.76a4.289 4.289 0 011.63-.51 3.389 3.389 0 011.76 0c.512.186.949.538 1.24 1 .7 1.07 1.3 2.3 2.58 2.9a6.213 6.213 0 001.73.45 15.25 15.25 0 007.24-.18 1.64 1.64 0 00.83-.48 1.19 1.19 0 00.18-.69c0-.92.34-3 0-3.84-.54-1.41-1.12-7-7.08-7.46-2-.16-6.12-.83-9.2.84a9.65 9.65 0 00-5 8.8c.053.852.177 1.698.37 2.53.05.26.2 1.9.76 1.53.16-.11.24-.92.32-1.12.144-.363.318-.714.52-1.05.419-.686.887-1.34 1.4-1.96z"/>
  <path fill="#1B917A" d="M22 17.473s-9.08 2.18-8.71 15.53c-2.53-5.71-4.83-15.39 8.71-15.53z"/>
  <path fill="#3BBCA6" d="M23.38 65.363H43.32s-1.73-11.92-5.1-15.51a8.802 8.802 0 00-3-1.63c-1.23-.42-2.43-.89-3.64-1.35-.09.07-.21.12-.25.2-1.62 3.32-4.52 5.1-7.52 6.77-.178.11-.375.184-.58.22a1.81 1.81 0 01-.58-.22c-3-1.67-5.9-3.45-7.51-6.77 0-.08-.17-.13-.25-.2-1.21.46-2.42.93-3.64 1.35a8.802 8.802 0 00-3 1.63 10.661 10.661 0 00-1.91 3.35C10 57.453 19 63.233 22.5 65.363h.88z"/>
  <path fill="#25AB99" d="M35.37 69.293c-5.73 0-13.11-1.29-18.37-4.68C4.44 56.586-1.16 45.363.2 30.943a2.008 2.008 0 014 .37C3 44.083 8 54.523 18.92 61.093c10.2 6.12 24 5.46 32-.87a2 2 0 012.49 3.13 28.73 28.73 0 01-18.04 5.94z"/>
</svg>
