<svg xmlns="http://www.w3.org/2000/svg" width="68" height="63" fill="none" viewBox="0 0 68 63">
  <g clip-path="url(#clip0)">
    <path fill="#F6AC52" d="M21.49 39.08v2.93c-.07 2.53-.31 2.63-3.18 3.4-1.56.43-1.39.93-.57 1.84a33 33 0 0010.19 7.4c.215.111.45.182.69.21V40.3c-1.97.06-3.62-.3-7.13-1.22z"/>
    <path fill="#F3BA63" d="M29.13 54.78a29.231 29.231 0 0010.41-7.52c.88-1 1-1.46-.59-1.78-1-.19-2.27-.33-2.88-1.25A.9.9 0 0136 44a10.92 10.92 0 01-.38-4.79 47.23 47.23 0 01-7 1.08v14.57a.94.94 0 00.51-.08z"/>
    <path fill="#F6AC52" d="M16.05 27.13v-1.25c0-.42.11-1.12-.72-1-.83.12-1.54 0-1.53 1.07v2.66c0 .88.43 1.24 1.32 1.29 1.15.07.92-.68.93-1.33.01-.5 0-.97 0-1.44zM41.11 28.33c-.09-.78 0-1.58 0-2.37-.1-1.06.38-1.29 1.29-1.08 1 0 1.25.58 1.25 1.4v2.33c0 1.21-.86 1.3-1.75 1.26-1.3-.04-.72-.99-.79-1.54z"/>
    <path fill="#3BBCA6" d="M54.52 62.92l-18-.06H3.53S5 54.09 9.32 49.44a11.75 11.75 0 013.84-2.09c1.58-.55 3.13-1.16 4.7-1.74.11.08.26.14.32.26 2.08 4.28 5.83 6.57 9.7 8.73.228.136.479.231.74.28.265-.045.52-.14.75-.28 3.87-2.16 7.62-4.45 9.71-8.73.05-.12.21-.18.31-.26 1.57.58 3.12 1.19 4.7 1.74 1.4.45 2.702 1.16 3.84 2.09 4.35 4.65 6.59 13.48 6.59 13.48z"/>
    <path fill="#FCCA75" d="M29.49 22.35h11c1.18 0 1.5.36 1.43 1.53-.15 2.21.13 4.43-.28 6.63a13.15 13.15 0 01-14 10.94 13.35 13.35 0 01-12-13.07c0-.69-.46-7.54 3.48-9.82.54-.31 4.89-2.29 5.71-1.5.95.99 3.91 5.29 4.66 5.29z"/>
    <path fill="#3BBCA6" d="M18.77 20.23a4.49 4.49 0 01.93-1 5.433 5.433 0 012.14-.72 4.482 4.482 0 012.27 0 3.2 3.2 0 011.57 1.42c.9 1.39 1.67 3 3.32 3.74.717.295 1.47.493 2.24.59 3.1.51 6.41.75 9.35-.24a2.08 2.08 0 001.06-.62c.167-.262.25-.57.24-.88 0-1.19.43-3.83 0-5-.7-1.82-1.45-9-9.14-9.63-2.59-.2-7.9-1.07-11.87 1.08a12.449 12.449 0 00-6.43 11.35 19.21 19.21 0 00.48 3.28c.06.33.26 2.45 1 2 .2-.14.31-1.19.41-1.44.184-.466.405-.918.66-1.35a24.232 24.232 0 011.77-2.58z"/>
    <path fill="#1B917A" d="M16 62.88h-2a36.72 36.72 0 011-8.63c0 2.906.336 5.801 1 8.63z"/>
    <path fill="#3BBCA6" d="M6 21.76c0-3.34-1.83-6.05-4.11-6.05C4.21 15.71 6 13 6 9.63c0 3.36 1.85 6.08 4.13 6.08-2.24 0-4.13 2.71-4.13 6.05zM2.49 31.19c0-2-1.11-3.67-2.49-3.67 1.38 0 2.49-1.65 2.49-3.68 0 2 1.12 3.68 2.5 3.68-1.38 0-2.5 1.64-2.5 3.67zM8.5 35.62c0-2-1.09-3.61-2.45-3.61 1.36 0 2.45-1.62 2.45-3.62 0 2 1.1 3.61 2.5 3.61-1.4 0-2.5 1.62-2.5 3.62z"/>
    <path fill="#1B917A" d="M27 7.6s-11.72 2.8-11.24 20C12.46 20.27 9.49 7.77 27 7.6z"/>
    <path fill="#3BBCA6" d="M65.75 0H44.79a1.64 1.64 0 00-1.64 1.64v13.02c0 .906.734 1.64 1.64 1.64h20.96a1.64 1.64 0 001.64-1.64V1.64A1.64 1.64 0 0065.75 0z"/>
    <path fill="#FAFBFC" d="M46.95 5.88h17.68V4.24H46.95v1.64zM46.95 11.35h17.68V9.71H46.95v1.64z"/>
    <path fill="#3BBCA6" d="M45.7 20.79c1.14-2.25-.31-5.34-.31-5.34h4.82s-1.27 4.22-4.51 5.34z"/>
    <path fill="#fff" d="M23.54 35s5.2 4.9 10.17.15A19.4 19.4 0 0023.54 35z"/>
  </g>
  <defs>
    <clipPath id="clip0">
      <path fill="#fff" d="M0 0h67.39v62.92H0z"/>
    </clipPath>
  </defs>
</svg>
