<svg xmlns="http://www.w3.org/2000/svg" width="73" height="57" fill="none" viewBox="0 0 73 57">
  <g clip-path="url(#clip0)">
    <path fill="#F6AC52" d="M13.39 24.71v-1.25c0-.42.11-1.13-.73-1-.69.08-1.53 0-1.52 1.08v2.66c0 .89.43 1.24 1.32 1.29 1.14.07.92-.69.93-1.33.01-.51 0-.98 0-1.45zM34 25.3c-.09-.78 0-1.58 0-2.37-.11-1.06.38-1.29 1.29-1.08 1 0 1.25.58 1.25 1.4s0 1.55-.05 2.33c0 1.21-.86 1.3-1.75 1.26-1.23-.04-.64-.99-.74-1.54z"/>
    <path fill="#F6AC52" d="M11.09 25.3c.09-.78 0-1.58 0-2.37.11-1.06-.37-1.29-1.29-1.08-1 0-1.25.58-1.25 1.4s0 1.55.05 2.33c0 1.21.86 1.3 1.75 1.26 1.26-.04.65-.99.74-1.54z"/>
    <path fill="#3BBCA6" d="M59.14 2.9a17.49 17.49 0 015.13 8.1c.103.323.157.66.16 1v20.47c0 2.2-2.12 3.93-4.61 3.77l-6.27-.41a4 4 0 01-3.95-4l2.25-26.52c.28-3.21 4.69-4.67 7.29-2.41z"/>
    <path fill="#1B917A" d="M40.31 3.73c-1.87 1.65-3.39 2.33-4.58 6.09-.27.918-.435 1.864-.49 2.82v19.93a4.002 4.002 0 004.42 3.67l6-.4a3.839 3.839 0 003.79-4L47.31 6.08c-.26-3.08-4.5-4.55-7-2.35z"/>
    <path fill="#F6AC52" d="M43.08 28.38v2.64c-.06 2.29-.27 2.37-2.86 3.07-1.4.38-1.25.84-.51 1.66a29.74 29.74 0 009.18 6.67c.195.105.41.17.63.19V29.48c-1.79.06-3.24-.3-6.44-1.1z"/>
    <path fill="#F3BA63" d="M50 42.54a26.49 26.49 0 009.38-6.78c.79-.94.92-1.32-.53-1.61-.86-.16-2-.29-2.59-1.13a.38.38 0 01-.1-.2 9.661 9.661 0 01-.35-4.31c-2.062.49-4.158.824-6.27 1v13.1a1 1 0 00.46-.07z"/>
    <path fill="#3BBCA6" d="M26.85 49.87h46s-2-8-5.94-12.15a10.69 10.69 0 00-3.46-1.89c-1.42-.49-2.82-1-4.24-1.57-.09.08-.23.14-.28.24-1.88 3.86-5.26 5.93-8.75 7.87a1.77 1.77 0 01-.67.25 1.88 1.88 0 01-.68-.25c-3.48-1.94-6.86-4-8.74-7.87-.05-.1-.19-.16-.29-.24-1.41.53-2.81 1.08-4.23 1.57a10.69 10.69 0 00-3.46 1.89c-3.93 4.19-5.26 12.15-5.26 12.15z"/>
    <path fill="#FCCA75" d="M50.29 13.3h9.88c1.07 0 1.35.32 1.28 1.38a47.84 47.84 0 01-.25 6 11.84 11.84 0 01-12.63 9.82 12 12 0 01-10.84-11.79c0-.61-.42-6.79 3.13-8.84.49-.28 4.41-2.07 5.14-1.36 1 .91 3.61 4.79 4.29 4.79z"/>
    <path fill="#3BBCA6" d="M40.63 11.39a4 4 0 01.83-.87 5 5 0 011.93-.65 4.07 4.07 0 012 0 2.91 2.91 0 011.41 1.29c.82 1.25 1.51 2.68 3 3.37a7.54 7.54 0 002 .53 17.77 17.77 0 008.43-.21 1.86 1.86 0 001-.57 1.29 1.29 0 00.21-.79c0-1.07.4-3.45 0-4.47-.61-1.67-1.28-8.17-8.22-8.71-2.33-.18-7.11-1-10.7 1a11.22 11.22 0 00-5.79 10.23c.055 1.011.202 2.016.44 3 0 .3.22 2.21.88 1.78.18-.13.27-1.07.36-1.3.165-.447.363-.881.59-1.3.49-.813 1.035-1.59 1.63-2.33z"/>
    <path fill="#1B917A" d="M37.16 42.07s0 9.62 3.29 11.81c-2.11.73-5.92.93-3.29-11.81zM48 0S36.11 1 37.88 18.08C34.94 11.43 32.26.16 48 0z"/>
    <path fill="#F6AC52" d="M38.24 19.51c.09-.78-.05-1.58 0-2.36.1-1.07-.38-1.3-1.29-1.09-1 0-1.25.58-1.25 1.4v2.33c0 1.21.86 1.3 1.75 1.27 1.3-.06.72-1 .79-1.55zM61.17 19.19c-.1-.78 0-1.59 0-2.37-.11-1.07.37-1.3 1.28-1.08 1 0 1.25.58 1.26 1.4.01.82 0 1.55-.06 2.32 0 1.21-.85 1.29-1.75 1.26-1.25-.04-.67-.98-.73-1.53z"/>
    <path fill="#1B917A" d="M30.67 39.55c4.16 1.41 5.24 1.4 8.86 3.32 1.83 1 3.64 4.41 4.51 7h-1.65l-12.55-9c.244-.46.521-.9.83-1.32z"/>
    <path fill="#F6AC52" d="M16.23 34.92v2.64c-.06 2.28-.27 2.37-2.86 3.07-1.4.38-1.26.83-.51 1.65A29.579 29.579 0 0022 49c.196.104.41.172.63.2V36c-1.75.07-3.2-.29-6.4-1.08z"/>
    <path fill="#F3BA63" d="M23.12 49.07a26.37 26.37 0 009.38-6.78c.79-.94.68-1.21-.18-1.49-.86-.28-2.4-.41-2.95-1.24a.56.56 0 01-.09-.2 9.67 9.67 0 01-.35-4.31 43.797 43.797 0 01-6.27 1v13.1a.88.88 0 00.46-.08z"/>
    <path fill="#3BBCA6" d="M46 56.4H0s1.33-8 5.26-12.15a10.74 10.74 0 013.45-1.89c1.43-.49 2.83-1 4.24-1.56.1.07.24.13.29.23C15.12 44.89 18.5 47 22 48.9c.21.125.44.213.68.26a2 2 0 00.67-.26c3.49-1.94 6.87-4 8.75-7.87.05-.1.19-.16.28-.23 1.42.52 2.82 1.07 4.24 1.56 1.26.41 2.434 1.051 3.46 1.89C44 48.44 46 56.4 46 56.4z"/>
    <path fill="#FCCA75" d="M23.44 19.83c4.55 0 5.33.05 9.88 0 1.06 0 1.35.33 1.28 1.39a47.916 47.916 0 01-.25 6A11.84 11.84 0 0121.71 37a12 12 0 01-10.83-11.75c0-.62-.42-6.8 3.13-8.85.48-.28 4.41-2.06 5.14-1.35.95.95 3.61 4.78 4.29 4.78z"/>
    <path fill="#3BBCA6" d="M13.78 17.93c.229-.335.509-.632.83-.88a5.002 5.002 0 011.93-.65 4.07 4.07 0 012.05 0A2.89 2.89 0 0120 17.66c.81 1.25 1.51 2.68 3 3.38a8.377 8.377 0 002 .53c2.787.6 5.678.524 8.43-.22a1.92 1.92 0 001-.56 1.31 1.31 0 00.21-.79c0-1.08.4-3.45 0-4.48-.63-1.64-1.3-8.14-8.24-8.68-2.33-.18-7.11-1-10.7 1a11.22 11.22 0 00-5.82 10.21c.056 1.01.2 2.014.43 3 .06.3.23 2.21.89 1.77.18-.12.27-1.07.36-1.3.175-.423.379-.834.61-1.23.482-.822 1.02-1.61 1.61-2.36z"/>
    <path fill="#1B917A" d="M11.28 56.36H9.44a33.12 33.12 0 01.87-7.77c.024 2.619.35 5.226.97 7.77zM21.16 6.53S10.6 9.06 11 24.62C8.09 18 5.41 6.69 21.16 6.53z"/>
  </g>
  <defs>
    <clipPath id="clip0">
      <path fill="#fff" d="M0 0h72.85v56.4H0z"/>
    </clipPath>
  </defs>
</svg>
