<svg xmlns="http://www.w3.org/2000/svg" width="67" height="67" fill="none" viewBox="0 0 67 67">
  <g clip-path="url(#clip0)">
    <path fill="#010201" d="M27.83 29.34l.06.12a.38.38 0 000-.19l-.06.07z"/>
    <path fill="#25AB99" d="M55.44 57.11a1.92 1.92 0 01-1.38-3.25 29.08 29.08 0 006.17-31c-4.41-11.16-14.65-18.26-27.4-19a1.94 1.94 0 01-1.81-2 1.93 1.93 0 012-1.81C47.34.8 58.83 8.81 63.8 21.4a32.869 32.869 0 01-7 35.11 1.9 1.9 0 01-1.36.6zM3.2 25.14c-.155 0-.31-.02-.46-.06a2 2 0 01-1.41-2.35C6.12 3 25.67.77 25.86.75A1.93 1.93 0 0128 2.49a1.928 1.928 0 01-1.71 2.13c-.71.08-17.07 2.07-21.2 19a1.92 1.92 0 01-1.89 1.52z"/>
    <path fill="#25AB99" d="M27.08 22A21.68 21.68 0 005.33 43.19 27 27 0 0012 53.87a32.66 32.66 0 006.19 4.77 25.567 25.567 0 003.17 1.62 28.733 28.733 0 006.67 2c.587.107 1.177.197 1.77.27 2.88.34 5.793.263 8.65-.23A21.76 21.76 0 0027.08 22z"/>
    <path fill="#fff" d="M25.31 40.08V34.8c0-1.67.71-2.55 2-2.54 1.29.01 1.95.9 1.95 2.59v9.18a1.21 1.21 0 00.8 1.28c1.89.9 3.77 1.85 5.64 2.8 1.35.68 1.79 1.68 1.25 2.8-.54 1.12-1.66 1.38-3 .72-2.41-1.19-4.81-2.43-7.23-3.61a2.35 2.35 0 01-1.43-2.35c.04-1.87.02-3.73.02-5.59zM27.39 25.53h-.65a.97.97 0 00-.97.97v1.6c0 .536.434.97.97.97h.65a.97.97 0 00.97-.97v-1.6a.97.97 0 00-.97-.97zM43.36 42.48h-1.5a.97.97 0 00-.97.97v.65c0 .536.434.97.97.97h1.5a.97.97 0 00.97-.97v-.65a.97.97 0 00-.97-.97zM12.02 42.48h-1.5a.97.97 0 00-.97.97v.65c0 .536.434.97.97.97h1.5a.97.97 0 00.97-.97v-.65a.97.97 0 00-.97-.97zM27.39 57.28h-.65a.97.97 0 00-.97.97v1.5c0 .536.434.97.97.97h.65a.97.97 0 00.97-.97v-1.5a.97.97 0 00-.97-.97z"/>
    <path fill="#127767" d="M27.08 22A21.68 21.68 0 005.33 43.19 27 27 0 0012 53.87a31.659 31.659 0 003.81 3.21L39.67 26a21.6 21.6 0 00-12.59-4z" opacity=".17"/>
    <path fill="#FDC161" d="M42.78 30.05a8.83 8.83 0 100-17.66 8.83 8.83 0 000 17.66z"/>
    <path fill="#fff" d="M48.33 20.65v1.15a.6.6 0 01-.6.6H44v3.77a.6.6 0 01-.6.6h-1.19a.6.6 0 01-.61-.6V22.4h-3.76a.6.6 0 01-.61-.6v-1.15a.61.61 0 01.61-.61h3.76v-3.76a.61.61 0 01.61-.61h1.15a.6.6 0 01.6.61V20h3.77a.61.61 0 01.6.65z"/>
    <path fill="#25AB99" d="M51.23 60.81A27.52 27.52 0 0134 66.51a38.588 38.588 0 01-13.31-2.36A24.25 24.25 0 0116.34 62c-.9-.57-1.75-1.16-2.57-1.76-.627-.46-1.227-.93-1.8-1.41a33.498 33.498 0 01-7.81-9C.793 44.07-.53 37.36.19 29.7A1.89 1.89 0 012.28 28 1.92 1.92 0 014 30.06 32.44 32.44 0 005 42.2c.1.33.2.67.31 1A27 27 0 0012 53.87a32.66 32.66 0 006.19 4.77 25.567 25.567 0 003.17 1.62 28.723 28.723 0 006.67 2c.587.107 1.177.197 1.77.27 2.88.34 5.793.263 8.65-.23a23.11 23.11 0 0010.4-4.48 1.921 1.921 0 012.4 3l-.02-.01z"/>
  </g>
  <defs>
    <clipPath id="clip0">
      <path fill="#fff" d="M0 0h66.14v66.51H0z"/>
    </clipPath>
  </defs>
</svg>
