<svg xmlns="http://www.w3.org/2000/svg" width="62" height="54" fill="none" viewBox="0 0 62 54">
  <g clip-path="url(#clip0)">
    <path fill="#1B917A" d="M37.45 8.84H0v44.54h37.45V8.84z" opacity=".89"/>
    <path fill="#118472" d="M37.45 8.84H0L5.02 0h27.41l5.02 8.84z"/>
    <path fill="#25AB99" d="M31.42 8.84H0L4.21 0h23l4.21 8.84z"/>
    <path fill="#F8991D" d="M21.58 8.94h-5.72L16.63 0h4.19l.76 8.94z"/>
    <path fill="#3BBCA6" d="M31.44 8.87v20.35a18 18 0 01-18 18H0V8.87h31.44z"/>
    <path fill="#FCCA75" d="M21.6 8.82h-5.72v6.76h5.72V8.82z"/>
    <path fill="#FAFBFC" d="M11.03 12.28H3.09v.9h7.94v-.9zM8.66 14.41H3.09v.9h5.57v-.9zM10 44.28H4a.9.9 0 01-.88-.91v-6.21a.9.9 0 01.88-.91h6a.89.89 0 01.87.91v6.21a.889.889 0 01-.87.91z"/>
    <path fill="#1B917A" d="M61.24 29.28H29.36v24.08h31.88V29.28z"/>
    <path fill="#118472" d="M61.24 29.27H29.36l4.27-7.52h23.33l4.28 7.52z"/>
    <path fill="#25AB99" d="M56.11 29.27H29.36l3.58-7.52h19.58l3.59 7.52z"/>
    <path fill="#F8991D" d="M47.73 29.36h-4.87l.65-7.61h3.57l.65 7.61z"/>
    <path fill="#3BBCA6" d="M56.13 29.28v3.37a18 18 0 01-18 18h-6.5a14.212 14.212 0 01-2.28-.18V29.28h26.78z"/>
    <path fill="#FCCA75" d="M47.75 29.26h-4.87v5.76h4.87v-5.76z"/>
    <path fill="#FAFBFC" d="M38.75 32.2h-6.76v.77h6.76v-.77zM39.94 34.02H35.2v.77h4.74v-.77zM37.84 49.05h-5.1a.77.77 0 01-.75-.77V43a.77.77 0 01.75-.78h5.1a.77.77 0 01.75.78v5.29a.77.77 0 01-.75.76z"/>
    <path fill="#25AB99" d="M49.45 13.7a5.44 5.44 0 005.33-5.53 5.44 5.44 0 00-5.33-5.53 5.21 5.21 0 00-3.34 1.22l2.65 2.37-7 1.07V0l2.45 2.19A7.63 7.63 0 0149.45.12a7.92 7.92 0 017.76 8.05 7.91 7.91 0 01-7.76 8 7.78 7.78 0 01-7.31-5.31l2.48-.38a5.36 5.36 0 004.83 3.22z"/>
  </g>
  <defs>
    <clipPath id="clip0">
      <path fill="#fff" d="M0 0h61.25v53.38H0z"/>
    </clipPath>
  </defs>
</svg>
