<svg xmlns="http://www.w3.org/2000/svg" width="62" height="62" fill="none" viewBox="0 0 62 62">
  <path fill="#1B917A" d="M13.184 41.996c1.19 4.86 2.4 9.72 3.59 14.58a3.36 3.36 0 01-2.39 3.94c-2.91.94-6.32.81-7.3-.71a2.92 2.92 0 01-.35-.93c-2.21-8.96-4.38-17.88-6.65-26.88-.47-1.86 1.1-3.67 3-4.22 1.07-.3 4.36-1.07 5.44-1.35.73-.2.84.13.95.59 1 4.094 2 8.18 3 12.26l.71 2.72z"/>
  <path fill="#157564" d="M15.004 41.306c1.193 4.807 2.38 9.617 3.56 14.43.4 1.66-1.35 2.79-3.16 3.42-2 .7-5.56 1.31-6.54-.2a3.139 3.139 0 01-.34-.91c-2.21-8.86-4.36-17.72-6.6-26.56-.47-1.85 1.1-3.63 3-4.18 1.08-.31 4.39-1.07 5.47-1.31.73-.2.84.13.95.58.987 4.047 1.987 8.094 3 12.14.21.83.42 1.71.66 2.59z"/>
  <path fill="#1B917A" d="M12.314 59.726c1.25 0 1.66-.46.79-3.5-3.48-14.2-6.957-28.403-10.43-42.61-.6-2.44.48-4.11 3-4.68l39.33-8.79c2.32-.52 3.81.35 4.35 2.56 3.533 14.414 7.06 28.824 10.58 43.23.53 2.15-.38 3.55-2.63 4.06-14.4 3.22-43.39 10.81-45 10.81a1.6 1.6 0 01.01-1.08z"/>
  <path fill="#3BBCA6" d="M15.004 60.346a5.72 5.72 0 00-.08-3.64 20794.93 20794.93 0 00-10.41-42.61c-.6-2.44.48-4.11 3-4.68l39.33-8.8c2.32-.52 3.81.38 4.35 2.57l10.59 43.23c.52 2.14-.39 3.55-2.63 4l-43.23 9.73-.92.2z"/>
  <path fill="#FCCA75" d="M33.064 18.996v-3.77-3.44c0-.41.13-.54.51-.63 1.72-.45 1.72-.46 2.51 1.06.79 1.52 1.68 3.27 2.54 4.9.1.2.15.44.51.58-.09-1.22-.17-2.38-.26-3.53s-.16-2.45-.28-3.67c0-.38.09-.48.45-.57 1.58-.4 1.57-.41 1.64 1.17.1 2.5.18 5 .33 7.5 0 .5-.12.65-.57.71-.8.11-1.71.72-2.33.35-.62-.37-.74-1.28-1.07-2-.33-.72-.71-1.47-1.06-2.21a18.232 18.232 0 00-1.21-2.18v3.4c0 1.12 0 2.24.05 3.36 0 .41-.12.56-.51.61-.39.05-.58.12-.87.19-1.63.36-1.62.36-2.3-1.13-1-2.18-2-4.35-3-6.5-.27-.57-.31-.84.45-1 1.34-.24 1.31-.27 1.85 1 .76 1.85 1.56 3.68 2.35 5.51.01.19.01.29.27.29zM13.184 17.716c.54 2.19 1.05 4.39 1.63 6.57.16.6 0 .87-.6.91a3.478 3.478 0 00-.64.14c-.34.11-.53.07-.62-.33-.66-2.75-1.34-5.51-2-8.26-.08-.35 0-.55.37-.58h.16c.8-.13 1.67-.67 2.36-.4s.86 1.21 1.26 1.86c.9 1.37 1.76 2.88 2.65 4.37.11.17.18.47.44.36.26-.11.06-.37 0-.55-.48-2-1-4.08-1.5-6.11-.14-.52-.08-.79.52-.83.22-.019.435-.07.64-.15.48-.18.64 0 .75.46.64 2.68 1.29 5.35 2 8 .13.5 0 .64-.49.72-.88.15-1.87.69-2.6.45-.73-.24-1-1.36-1.42-2.09-.93-1.52-1.84-3.06-2.75-4.59l-.16.05zM21.504 18.726c-.34-1.35-.65-2.71-1-4.05-.12-.44 0-.59.45-.68 1.76-.37 3.51-.75 5.25-1.18.58-.14.6.15.72.52s.06.64-.46.74c-1.12.21-2.23.5-3.35.73-.42.08-.49.23-.4.63.42 2 .4 2 2.38 1.52.233-.067.47-.12.71-.16.4-.06.95-.41 1.15-.15.248.459.4.962.45 1.48.07.33-.24.29-.43.34-.9.21-1.8.43-2.71.6-.46.08-.62.21-.5.71.33 1.27.3 1.28 1.65 1 .85-.19 1.71-.35 2.54-.59.51-.14.65 0 .76.47.29 1.25.31 1.24-1 1.53-1.51.34-3 .66-4.53 1-.44.1-.61 0-.71-.42-.29-1.35-.64-2.69-.97-4.04zM46.744 18.046c-.65.06-1.6.12-2.55.21-.54.06-.59-.28-.56-.63.03-.35-.34-.84.44-.92.87-.05 1.734-.18 2.58-.39.7-.19 1.19-.54 1.14-1.31-.05-.77-.64-1-1.3-1a14.076 14.076 0 01-2.59-.29 2.47 2.47 0 01-2.07-2.49 2.47 2.47 0 011.46-2.5 10.55 10.55 0 014.3-.78c.65 0 .39.63.51 1s0 .53-.42.58c-.81.09-1.61.23-2.42.36a2.489 2.489 0 00-.83.29 1 1 0 00-.54 1 .87.87 0 00.84.73c1 .14 1.94.21 2.9.38a2.18 2.18 0 011.92 1.59c.65 2.12-.21 3.56-2.81 4.17z"/>
  <path fill="#FAFBFC" d="M41.774 24.106l6.55-1.47c.42-.1.9-.21 1 .31.1.52-.33.69-.78.79l-13.07 2.94c-.44.1-.89.16-1-.37-.11-.53.32-.64.75-.74l6.55-1.46zM43.384 29.856c2.18-.49 4.37-1 6.55-1.47.43-.1.89-.17 1 .36.11.53-.32.65-.75.74l-13.18 2.96c-.42.09-.83.13-1-.34-.17-.47.26-.67.71-.77 2.29-.48 4.46-.98 6.67-1.48z"/>
  <path fill="#FCCA75" d="M27.494 45.736l-6.55 1.47c-.44.1-.89.16-1-.36-.11-.52.32-.65.75-.74l13.11-2.94c.42-.09.89-.21 1 .31.11.52-.33.69-.78.79l-6.53 1.47z"/>
  <path fill="#FAFBFC" d="M44.834 36.126l-6.49 1.45c-.43.1-.88.18-1-.34s.29-.66.73-.75l13.18-3c.44-.1.89-.16 1 .37.11.53-.3.63-.71.72l-6.71 1.55zM46.184 41.276l-6.48 1.45c-.43.1-.89.18-1-.34-.11-.52.3-.66.73-.75l13.19-3c.43-.09.88-.15 1 .38s-.3.63-.71.72l-6.73 1.54zM28.514 49.236l6.49-1.45c.43-.1.89-.18 1 .36.11.54-.34.65-.77.74l-13.18 3c-.42.1-.83.13-1-.34-.17-.47.27-.67.72-.76l6.74-1.55zM47.274 44.996l6.42-1.44c.186-.052.377-.086.57-.1a.53.53 0 01.56.37.48.48 0 01-.23.61c-.217.104-.445.181-.68.23l-12.83 2.91-.28.06c-.41.12-.77.06-.88-.37-.11-.43.16-.63.58-.72.42-.09 1-.23 1.57-.35l5.2-1.2zM32.324 40.356l-12.19 2.74-3.33-13.55 12.18-2.75 3.34 13.56z"/>
</svg>
