<svg xmlns="http://www.w3.org/2000/svg" width="66" height="50" fill="none" viewBox="0 0 66 50">
  <g clip-path="url(#clip0)">
    <path fill="#3BBCA6" d="M2.31 22.05h11.43a1 1 0 100-2H2.31a1 1 0 000 2zM8.58 28.34h9.31c.36 0 .65-.45.65-1s-.29-1-.65-1H8.58c-.36 0-.65.45-.65 1s.29 1 .65 1zM.73 34.75H11.1c.4 0 .73-.45.73-1s-.33-1-.73-1H.73c-.4 0-.73.45-.73 1s.33 1 .73 1zM5.73 40.55H16.1c.4 0 .73-.44.73-1s-.33-1-.73-1H5.73c-.4 0-.73.45-.73 1s.33 1 .73 1z"/>
    <path fill="#1B917A" d="M65.17 11.84H13.21v37.89h51.96V11.84z"/>
    <path fill="#118472" d="M65.17 11.84H13.21L20.18 0h38.03l6.96 11.84z"/>
    <path fill="#25AB99" d="M56.82 11.84H13.21L19.06 0h31.91l5.85 11.84z"/>
    <path fill="#F8991D" d="M43.16 11.98h-7.94L36.29 0h5.81l1.06 11.98z"/>
    <path fill="#3BBCA6" d="M56.84 11.84v7.67a26 26 0 01-25.95 25.94H13.21V11.84h43.63z"/>
    <path fill="#FCCA75" d="M43.19 11.82h-7.94v9.06h7.94v-9.06z"/>
    <path fill="#FAFBFC" d="M28.53 16.45H17.51v1.21h11.02v-1.21zM25.24 19.3h-7.73v1.21h7.73V19.3zM27.05 32.2h-8.33a1.21 1.21 0 00-1.21 1.21v8.33c0 .668.542 1.21 1.21 1.21h8.33a1.21 1.21 0 001.21-1.21v-8.33a1.21 1.21 0 00-1.21-1.21z"/>
  </g>
  <defs>
    <clipPath id="clip0">
      <path fill="#fff" d="M0 0h65.2v49.77H0z"/>
    </clipPath>
  </defs>
</svg>
