<svg xmlns="http://www.w3.org/2000/svg" width="69" height="70" fill="none" viewBox="0 0 69 70">
  <path fill="#010201" d="M29 30.563l.06.13a.42.42 0 000-.2l-.06.07z"/>
  <path fill="#1B917A" d="M9.13 38.833l25.75 10.64a3.15 3.15 0 004.12-1.47l4.73-10.54a2.92 2.92 0 00-1.73-3.85l-25.75-10.61a3.15 3.15 0 00-4.07 1.48l-4.73 10.52a2.93 2.93 0 001.68 3.83z"/>
  <path fill="#25AB99" d="M10.91 45.573l26.93 7.17a3.13 3.13 0 003.83-2L45 39.673a2.91 2.91 0 00-2.17-3.59l-26.95-7.17a3.13 3.13 0 00-3.83 2l-3.31 11.09a2.92 2.92 0 002.17 3.57z"/>
  <path fill="#3BBCA6" d="M14.16 51.703l27.48 5.16a3.002 3.002 0 003.6-2.28l2.12-11.31a3.001 3.001 0 00-2.52-3.43l-27.48-5.16a2.998 2.998 0 00-3.6 2.32l-2.12 11.27a3 3 0 002.52 3.43z"/>
  <path fill="#fff" d="M20.114 45.757l3.494-6.114 1.144.215-4.43 7.376-.926-.174-1.446-8.48 1.139.214 1.025 6.963zm10.31 3.374l-1.052-.197-2.844-6.86-1.147 6.11-1.051-.197 1.49-7.929 1.05.197 2.85 6.89 1.153-6.138 1.04.196-1.49 7.928zm1.856.35l1.49-7.93 2.238.421c.69.13 1.27.397 1.743.801.473.405.8.915.981 1.532.185.617.21 1.291.077 2.021l-.095.507c-.14.748-.409 1.376-.805 1.884a3.076 3.076 0 01-1.48 1.064c-.59.2-1.242.238-1.954.111l-2.195-.412zm2.373-6.873l-1.167 6.214 1.1.206c.806.152 1.48.019 2.02-.398.544-.417.903-1.088 1.077-2.013l.087-.463c.17-.9.088-1.64-.243-2.217-.327-.58-.878-.946-1.654-1.1l-1.22-.229z"/>
  <path fill="#FDC161" d="M40.91 23.663c-.3-.17-.6-.32-.91-.46a.691.691 0 01-.4-.4v-.2-.12c.026-.44.083-.878.17-1.31.08-.28.17-.33.46-.38.29-.05.84 0 1.26-.09.42-.09.76-.44.49-.92-.27-.48-.43-.71-.62-1.07a.431.431 0 01.08-.61 35.3 35.3 0 011-1c.21-.2.28-.21.53-.07l1.06.59c.54.3.94.07 1-.55v-1.18c0-.4.08-.4.42-.5.34-.1.93-.12 1.39-.21h.2c.21.05.3.21.4.39.1.18.31.55.43.83a.62.62 0 001.1.08c.21-.35.46-.67.69-1a.46.46 0 01.5-.21c.494.092.978.24 1.44.44a.4.4 0 01.27.41c0 .42 0 .83-.08 1.24a.67.67 0 00.33.7.63.63 0 00.58 0l1.21-.5a.421.421 0 01.6.16c.27.33.54.66.8 1a.4.4 0 010 .61c-.22.32-.46.62-.69.93a.74.74 0 00.47 1.23c.42.09.85.16 1.26.24.22 0 .29.15.31.36 0 .38 0 .76.08 1.15v.45a.55.55 0 01-.34.29l-1.05.37a.621.621 0 00-.36.33.86.86 0 00.28 1.17c.27.24.53.49.79.75a.39.39 0 01.12.45c-.187.435-.404.856-.65 1.26a.4.4 0 01-.47.19l-1.19-.26a.86.86 0 00-1 1c.1.41.21.81.3 1.22a.42.42 0 01-.2.5c-.37.23-.76.44-1.14.65a.39.39 0 01-.51-.08c-.26-.237-.507-.488-.74-.75a.91.91 0 00-1.08-.31.65.65 0 00-.46.42c-.12.34-.24.68-.34 1a.56.56 0 01-.34.39h-.7a7.262 7.262 0 00-.8 0c-.28 0-.35-.06-.41-.34s-.17-.81-.26-1.21a.82.82 0 00-1.29-.47c-.33.25-.63.53-1 .78a.44.44 0 01-.54 0c-.36-.25-.7-.52-1-.8-.3-.28-.27-.32-.15-.62l.45-1.18a.72.72 0 00-.7-.95c-.42 0-.83.08-1.25.12a.43.43 0 01-.55-.32c-.14-.37-.27-.74-.4-1.11-.13-.37-.11-.51.22-.77s.67-.48 1-.75a.61.61 0 00-.07-1zm7.29 2.93a2.83 2.83 0 100-5.66 2.83 2.83 0 000 5.66z"/>
  <path fill="#EEA520" d="M29 15.633l-.58-.29a.439.439 0 01-.26-.26v-.08-.07a5.85 5.85 0 01.11-.84c0-.18.11-.22.3-.24.19-.02.53 0 .8-.06s.49-.29.32-.59c-.17-.3-.28-.46-.4-.69a.27.27 0 01.05-.39c.21-.22.43-.44.65-.65.22-.21.18-.13.34 0l.68.38c.34.18.6 0 .61-.36v-.75c0-.25.05-.26.27-.32.22-.06.59-.08.88-.14h.13c.14 0 .2.14.26.25.06.11.2.35.28.53a.39.39 0 00.7 0c.13-.22.29-.42.44-.64a.31.31 0 01.32-.13c.314.063.623.157.92.28a.25.25 0 01.17.27c.002.264-.014.528-.05.79a.42.42 0 00.22.44.34.34 0 00.36 0l.78-.32a.281.281 0 01.39.1l.51.65c.12.16.12.22 0 .39s-.29.39-.44.59a.48.48 0 00.3.79l.81.15c.14 0 .18.1.2.23.02.13 0 .49 0 .73v.29a.38.38 0 01-.22.19l-.67.24a.37.37 0 00-.23.21.55.55 0 00.18.75l.5.47a.25.25 0 01.08.3c-.12.277-.261.544-.42.8a.25.25 0 01-.3.12l-.76-.17a.558.558 0 00-.65.66c.06.27.13.53.19.79a.26.26 0 01-.13.31c-.24.15-.48.29-.73.42a.24.24 0 01-.32-.05c-.16-.16-.33-.31-.48-.48a.58.58 0 00-.69-.2.41.41 0 00-.29.27c-.08.22-.15.44-.22.66a.35.35 0 01-.22.25h-.45c-.17-.01-.34-.01-.51 0-.17 0-.22 0-.26-.21-.04-.21-.11-.52-.17-.78a.52.52 0 00-.82-.3c-.21.16-.4.34-.62.5a.27.27 0 01-.34 0c-.23-.16-.45-.33-.67-.51a.292.292 0 01-.14-.293.29.29 0 01.04-.107c.1-.25.2-.5.29-.75a.46.46 0 00-.44-.61c-.27 0-.54.05-.81.08a.27.27 0 01-.34-.21c-.1-.23-.18-.47-.26-.71-.08-.24-.07-.33.14-.5.21-.17.43-.3.63-.47a.39.39 0 00.04-.71zm4.66 1.88a1.81 1.81 0 10-.01 0h.01z"/>
  <path fill="#25AB99" d="M57.76 59.493a2 2 0 01-1.45-3.38 30.27 30.27 0 006.43-32.35c-4.58-11.63-15.25-19.02-28.53-19.76a2.003 2.003 0 01.22-4c14.88.84 26.86 9.17 32 22.3a34.19 34.19 0 01-7.23 36.57 2 2 0 01-1.44.62zM3.33 26.193c-.163 0-.324-.02-.48-.06a2 2 0 01-1.46-2.45C6.38 3.173 26.74.803 27 .783a2 2 0 012.19 1.81 1.998 1.998 0 01-1.78 2.23c-.79.08-17.84 2.18-22.14 19.83a2 2 0 01-1.94 1.54zM35.37 69.293c-5.73 0-13.11-1.29-18.37-4.68C4.44 56.586-1.16 45.363.2 30.943a2.008 2.008 0 014 .37C3 44.083 8 54.523 18.92 61.093c10.2 6.12 24 5.46 32-.87a2 2 0 012.49 3.13 28.73 28.73 0 01-18.04 5.94z"/>
</svg>
