<svg xmlns="http://www.w3.org/2000/svg" width="76" height="64" fill="none" viewBox="0 0 76 64">
  <path fill="#FDC161" d="M11.65 12.17c0-3.35-1.84-6.08-4.12-6.08 2.28 0 4.12-2.72 4.12-6.09 0 3.37 1.86 6.09 4.14 6.09-2.28 0-4.14 2.73-4.14 6.08z"/>
  <path fill="#3BBCA6" d="M2.6 18.57c0-2.11-1.16-3.82-2.6-3.82 1.44 0 2.6-1.72 2.6-3.84 0 2.12 1.16 3.84 2.6 3.84-1.44 0-2.6 1.71-2.6 3.82zM5.06 31.59C5.06 29.59 4 28 2.6 28c1.4 0 2.46-1.65 2.46-3.66 0 2 1.1 3.63 2.47 3.63-1.37.03-2.47 1.62-2.47 3.62z"/>
  <path fill="#FDC161" d="M10.56 23.75v30.7l25.6 8.7V32.23l-25.6-8.48z"/>
  <path fill="#EEA520" d="M61.77 23.75v30.7l-25.61 8.7V32.23l25.61-8.48z"/>
  <path fill="#28A38C" d="M59.81 24.76l-3.08 5.14a3 3 0 00-.17 2.67l6.23 14.63a2.1 2.1 0 002.63 1.13l8.92-3.25a1.999 1.999 0 001.17-2.65l-6.06-14.51a3.07 3.07 0 00-2-1.76l-6.35-1.9a1.16 1.16 0 00-1.29.5z"/>
  <path fill="#FAFBFC" d="M61 36.63a2.12 2.12 0 01-1-1.18l-.36-.91A1.769 1.769 0 0160.72 32a2 2 0 011.58 0 2.12 2.12 0 011 1.2l.36.89a1.78 1.78 0 01-1.1 2.57 2 2 0 01-1.56-.03zM62.33 35a.62.62 0 000-.43l-.37-.94a.66.66 0 00-.27-.33.45.45 0 00-.38 0 .44.44 0 00-.27.26.61.61 0 00-.04.44l.37.92a.6.6 0 00.27.35.449.449 0 00.38 0 .41.41 0 00.31-.27zm3.18-4.74l1.57-.59-1.45 12.72-1.57.6 1.45-12.73zm3.31 10.47a2.08 2.08 0 01-1-1.18l-.36-.91a2 2 0 01-.07-1.55 1.9 1.9 0 011.17-1 2 2 0 011.57 0 2 2 0 011 1.19l.36.89a2 2 0 01.07 1.56 1.929 1.929 0 01-1.17 1 2 2 0 01-1.57.01v-.01zm1.3-1.62a.61.61 0 000-.43l-.38-.94a.6.6 0 00-.26-.33.5.5 0 00-.66.25.67.67 0 000 .43l.38.93a.64.64 0 00.27.34.449.449 0 00.38 0 .41.41 0 00.27-.24v-.01z"/>
  <path fill="#0F7360" d="M53.78 26.46v30.7l-7.99 2.71V28.95l7.99-2.49z"/>
  <path fill="#28A38C" d="M18.5 26.46v30.7l7.99 2.71V28.95l-7.99-2.49z"/>
  <path fill="#3BBCA6" d="M7.97 19.1v4.56l28.19 9.42v-4.42L7.97 19.1z"/>
  <path fill="#1B917A" d="M64.35 19.1v4.56l-28.19 9.42v-4.42l28.19-9.56z"/>
  <path fill="#FDC161" d="M7.97 19.1l28.19-9.77 28.19 9.77-28.19 9.56L7.97 19.1z"/>
  <path fill="#1B917A" d="M36.16 19.62l9.68 5.49-.9-2.13 5.32-.58-10.71-4.99-3.39 2.21zM35.86 19.62l-9.68 5.49.91-2.13-5.33-.58 10.72-4.99 3.38 2.21z"/>
  <path fill="#3BBCA6" d="M33.72 13.69S23.69 8 23.1 6.26c0 0-10.24 5.69-5 11.19 0 0 2.12 2.16 14.46 1.94l1.16-5.7z"/>
  <path fill="#1B917A" d="M33.72 13.69s-9.44-9-10.62-7.43c0 0-1.86 2.25 10.62 7.43z"/>
  <path fill="#3BBCA6" d="M37.24 13.69S47.27 8 47.85 6.26c0 0 10.24 5.69 5 11.19 0 0-2.12 2.16-14.46 1.94l-1.15-5.7z"/>
  <path fill="#1B917A" d="M37.24 13.69s9.44-9 10.61-7.43c0 0 1.71 2.59-10.61 7.43z"/>
  <path fill="#3BBCA6" d="M33.08 14a4.53 4.53 0 015.08-.13c.18.12.32.29.4.49A6.06 6.06 0 0139 18c-.51 1.89-1.2 2.2-3 2.2s-3.87.21-4.12-2.36a4.63 4.63 0 011-3.68.88.88 0 01.2-.16z"/>
  <path fill="#1B917A" d="M34 12.64s-3.13 5-.31 9.34c0 0-3.37-2.71-2.36-5.89 1.01-3.18 2.67-3.45 2.67-3.45zM37.24 12.64s2.65 5 .26 9.34c0 0 2.85-2.71 2-5.89-.85-3.18-2.26-3.45-2.26-3.45z"/>
</svg>
