<svg xmlns="http://www.w3.org/2000/svg" width="62" height="51" fill="none" viewBox="0 0 62 51">
  <path fill="#1B917A" d="M16.942 50.397c-7.63-.05-15.74-5.73-16.7-13.33-.96-7.6 5.05-15.15 12.86-16.48 1.19-.2 1.5 0 1.65 1.08.56 4.15 1.19 8.13 1.73 12.27.17 1.35.51 1.46 2 1.2 4-.73 8-1.17 12-1.84 1.77-.28 1.86.65 1.83 2a15.27 15.27 0 01-15.37 15.1z"/>
  <path fill="#B46E29" d="M19.782 18.377c6.31.27 12.66 4.16 13.78 10.71.18 1.07.23 1.5-1.24 1.67-4 .46-8 1.09-12 1.68-.86.13-1.24-.08-1.37-1-.56-4-1.2-8-1.84-12-.12-.71 0-1.1.83-1.06.56.02 1.09 0 1.84 0z"/>
  <path fill="#1B917A" d="M48.652 1.547c.01.093.01.187 0 .28l-.81 5.85a1.52 1.52 0 01-1.51 1.23.62.62 0 01-.2 0 1.44 1.44 0 01-1.33-1.58l.38-2.65-9.34 6.8a1.66 1.66 0 01-1.37.26 1.479 1.479 0 01-1-.89l-1-2.64-7.44 5.07a1.61 1.61 0 01-1.2.26 1.52 1.52 0 01-1-.68l-2.47-3.84-13.22 7.52a1.52 1.52 0 01-.79.22 1.559 1.559 0 01-1.32-.68 1.35 1.35 0 01.5-1.94l14.56-8.31a1.63 1.63 0 011.17-.17 1.6 1.6 0 01.95.66l2.4 3.76 7.66-5.3a1.68 1.68 0 011.36-.22 1.49 1.49 0 011 .87l1 2.6 7.05-5.14h-2.29a1.47 1.47 0 01-1.56-1.35 1.48 1.48 0 011.51-1.44l6.37-.08h.18a1.59 1.59 0 011.44.54c.23.276.345.63.32.99zM61.762 48.387l-1.54 1.4-4.85-1.4-1.54-44.18 1.54-1.39h6.39v45.57z"/>
  <path fill="#3BBCA6" d="M15.112 49.587a14.94 14.94 0 01-15-12.74c-.91-7.17 3.82-13.83 11.13-15.83 1.16-.31 1.51 0 1.66 1 .55 4 1.21 7.9 1.75 11.86.17 1.29.54 1.71 2 1.45 4-.69 8-1.11 12-1.76 1.54-.25 1.82.32 1.79 1.62-.14 8.01-6.96 14.45-15.33 14.4z"/>
  <path fill="#F8991D" d="M19.612 17.157a15 15 0 0113.67 10.57c.29 1 .34 1.64-1.13 1.81-4 .46-8 1.09-12 1.68-.86.13-1.24-.08-1.37-1-.56-4-1.2-8-1.84-12-.12-.71 0-1.1.83-1.06.56.02 1.1 0 1.84 0z"/>
  <path fill="#3BBCA6" d="M60.212 4.207h-6.38v45.57h6.38V4.207z"/>
  <path fill="#0C5B4C" d="M52.482 48.697l-1.54 1.09-4.84-1.09-1.54-34.59 1.54-1.09h6.38v35.68z"/>
  <path fill="#1B917A" d="M50.942 14.107h-6.38v35.68h6.38v-35.68z"/>
  <path fill="#B46E29" d="M42.692 48.857l-1.53.93-4.85-.93-1.54-29.23 1.54-.93h6.38v30.16z"/>
  <path fill="#FCCA75" d="M41.152 19.617h-6.38v30.16h6.38v-30.16z"/>
</svg>
