<svg xmlns="http://www.w3.org/2000/svg" width="70" height="60" fill="none" viewBox="0 0 70 60">
  <g clip-path="url(#clip0)">
    <path fill="#F6AC52" d="M62.7 22.07l-3.81 3.68.99 5.13-4.81-2.37L50.33 31l.84-5.14-3.91-3.59 5.32-.82 2.32-4.7 2.46 4.64 5.34.68zM69.84 41.45l-3.52 3.41.91 4.73-4.45-2.18-4.37 2.29.77-4.75-3.61-3.31 4.92-.76 2.14-4.34 2.27 4.29 4.94.62zM7.14 22.07l3.81 3.68-.99 5.13 4.81-2.37L19.51 31l-.84-5.14 3.91-3.59-5.32-.82-2.32-4.7-2.46 4.64-5.34.68zM0 41.45l3.52 3.41-.91 4.73 4.44-2.18 4.38 2.29-.77-4.75 3.61-3.31-4.92-.76-2.14-4.34-2.27 4.29-4.94.62zM46.48 8.23l-5.89 5.7 1.52 7.92-7.44-3.65-7.33 3.85 1.3-7.96-6.06-5.55 8.24-1.27L34.42 0l3.79 7.18 8.27 1.05z"/>
    <path fill="#157564" d="M34 30.51c-1 2.12-2.07 4.23-3.09 6.36-.11.22-.19.31-.46.16s-.83-.41-1.26-.6c-.22-.1-.27-.18-.16-.41 1.24-2.51 2.46-5 3.68-7.52a1 1 0 011.5-.5c.45.21 2.59 1.27 3 1.5l-.84 1.74-1.85-.93c-.28-.16-.38-.07-.52.2z"/>
    <path fill="#3BBCA6" d="M41.74 28.35c-.56-.23-1.09-.53-1.64-.78a2 2 0 00-2.69.87 6.654 6.654 0 00-.32.66L32.27 39l-7.18 14.7a1.56 1.56 0 00-.18.82c.08 1.39.16 2.77.23 4.16a1 1 0 00.62 1 1.05 1.05 0 001.17-.2c1.05-.83 2.1-1.66 3.16-2.48a1.73 1.73 0 00.5-.61l6.15-12.59c2-4.16 4-8.32 6.1-12.45a2.082 2.082 0 00-1.1-3z"/>
  </g>
  <defs>
    <clipPath id="clip0">
      <path fill="#fff" d="M0 0h69.84v59.72H0z"/>
    </clipPath>
  </defs>
</svg>
