<svg xmlns="http://www.w3.org/2000/svg" width="69" height="70" fill="none" viewBox="0 0 69 70">
  <path fill="#010201" d="M45.89 31.243v.13a.42.42 0 01-.05-.2l.05.07z"/>
  <path fill="#FDC161" d="M42.77 23.663a9.5 9.5 0 00-.9-.46.641.641 0 01-.4-.4v-.2a.17.17 0 000-.12 8.26 8.26 0 01.18-1.31c.08-.28.16-.33.46-.38.3-.05.84 0 1.26-.09.42-.09.76-.44.49-.92-.27-.48-.43-.71-.63-1.07a.431.431 0 01.08-.61 35.3 35.3 0 011-1c.21-.2.29-.21.54-.07.25.14.7.4 1.06.59.54.3.94.07.95-.55.025-.402.072-.803.14-1.2 0-.35.08-.4.42-.5.34-.1.92-.12 1.38-.21h.2c.22.05.31.21.4.39.09.18.32.55.44.83a.62.62 0 001.1.08c.21-.35.46-.67.69-1a.46.46 0 01.5-.21c.494.093.977.24 1.44.44a.4.4 0 01.26.41c.003.415-.024.83-.08 1.24a.66.66 0 00.25.66.61.61 0 00.57 0l1.22-.5a.421.421 0 01.6.16c.27.33.53.66.79 1 .26.34.2.36 0 .61s-.47.62-.7.93a.74.74 0 00.52 1.31c.41.09.84.16 1.26.24.21 0 .28.15.31.36 0 .38 0 .76.07 1.15v.45a.56.56 0 01-.33.29l-1 .37a.61.61 0 00-.37.33.87.87 0 00.29 1.17c.266.24.526.49.78.75a.37.37 0 01.12.45 9.943 9.943 0 01-.64 1.26.41.41 0 01-.48.19l-1.18-.26a.87.87 0 00-1 1c.1.41.21.81.31 1.22a.43.43 0 01-.21.5c-.37.23-.76.44-1.14.65a.38.38 0 01-.5-.08c-.25-.25-.52-.48-.75-.75a.9.9 0 00-1.08-.31.64.64 0 00-.45.42c-.12.34-.24.68-.35 1a.54.54 0 01-.33.39h-.71a7.081 7.081 0 00-.79 0c-.28 0-.35-.06-.41-.34s-.17-.81-.26-1.21a.82.82 0 00-1.29-.47c-.33.25-.63.53-1 .78a.44.44 0 01-.54 0c-.36-.25-.7-.52-1-.8-.3-.28-.27-.32-.15-.62.12-.3.31-.79.45-1.18a.72.72 0 00-.69-.95c-.42 0-.84.08-1.26.12-.42.04-.42 0-.54-.32-.12-.32-.27-.74-.41-1.11-.14-.37-.11-.51.23-.77s.67-.48 1-.75a.611.611 0 00-.19-1.02zm7.3 2.93a2.83 2.83 0 100-5.66 2.83 2.83 0 000 5.66z"/>
  <path fill="#EEA520" d="M30.85 15.633l-.58-.29a.46.46 0 01-.25-.26v-.08-.07c.02-.282.057-.562.11-.84.06-.18.11-.22.3-.24.19-.02.54 0 .81-.06a.37.37 0 00.31-.59l-.4-.69a.27.27 0 01.05-.39l.65-.65c.14-.13.19-.13.35 0l.67.38c.35.18.6 0 .62-.36-.016-.25-.016-.5 0-.75 0-.23 0-.26.26-.32s.6-.08.89-.14h.13c.14 0 .19.14.25.25.06.11.2.35.28.53a.4.4 0 00.71 0c.13-.22.29-.42.44-.64a.3.3 0 01.32-.13c.314.063.623.157.92.28a.27.27 0 01.17.27 7.13 7.13 0 010 .79.4.4 0 00.21.44.36.36 0 00.37 0l.78-.32c.19-.07.25-.05.38.1.13.15.35.43.51.65.16.22.12.22 0 .39s-.3.39-.45.59a.48.48 0 00.31.79l.81.15a.22.22 0 01.19.23c0 .24 0 .49.05.73v.29a.33.33 0 01-.21.19l-.67.24a.39.39 0 00-.24.21.57.57 0 00.18.75c.18.15.34.31.51.47a.29.29 0 01.08.3 7.593 7.593 0 01-.42.8.25.25 0 01-.3.12l-.76-.17a.56.56 0 00-.66.66c.07.27.14.53.2.79a.26.26 0 01-.13.31c-.24.15-.49.29-.73.42a.25.25 0 01-.33-.05c-.16-.16-.33-.31-.47-.48a.58.58 0 00-.69-.2.41.41 0 00-.3.27c-.07.22-.15.44-.22.66a.32.32 0 01-.21.25h-.45c-.17-.01-.34-.01-.51 0-.18 0-.22 0-.26-.21-.04-.21-.11-.52-.17-.78a.52.52 0 00-.82-.3l-.62.5a.29.29 0 01-.35 0 8.28 8.28 0 01-.66-.51c-.16-.12-.17-.21-.1-.4.07-.19.2-.5.29-.75a.46.46 0 00-.45-.61c-.26 0-.53.05-.8.08s-.27 0-.35-.21c-.08-.21-.17-.47-.26-.71s-.07-.33.15-.5c.22-.17.43-.3.63-.47a.39.39 0 00-.07-.71zm4.67 1.88a1.81 1.81 0 100-3.62 1.81 1.81 0 000 3.62z"/>
  <path fill="#25AB99" d="M57.76 59.493a2 2 0 01-1.45-3.38 30.27 30.27 0 006.43-32.35c-4.58-11.63-15.25-19.02-28.53-19.76a2.003 2.003 0 01.22-4c14.88.84 26.86 9.17 32 22.3a34.19 34.19 0 01-7.23 36.57 2 2 0 01-1.44.62zM3.33 26.193c-.163 0-.324-.02-.48-.06a2 2 0 01-1.46-2.45C6.38 3.173 26.74.803 27 .783a2 2 0 012.19 1.81 1.998 1.998 0 01-1.78 2.23c-.79.08-17.84 2.18-22.14 19.83a2 2 0 01-1.94 1.54zM35.37 69.293c-5.73 0-13.11-1.29-18.37-4.68C4.44 56.586-1.16 45.363.2 30.943a2.008 2.008 0 014 .37C3 44.083 8 54.523 18.92 61.093c10.2 6.12 24 5.46 32-.87a2 2 0 012.49 3.13 28.73 28.73 0 01-18.04 5.94z"/>
  <path fill="#3BBCA6" d="M35.49 30.463v18.54h11.32s1.13.08 1.13-1.37v-7.12l-5.88-9a2.32 2.32 0 00-2-1.06l-4.57.01z"/>
  <path fill="#25AB99" d="M35.49 23.763H9.22v20.21h26.27v-20.21z"/>
  <path fill="#3BBCA6" d="M35.49 43.973H9.22v5.04h26.27v-5.04z"/>
  <path fill="#25AB99" d="M18.23 55.223c2.7 0 4.89-2.176 4.89-4.86s-2.19-4.86-4.89-4.86c-2.701 0-4.89 2.176-4.89 4.86s2.189 4.86 4.89 4.86z"/>
  <path fill="#fff" d="M18.23 52.683a2.325 2.325 0 002.33-2.32 2.325 2.325 0 00-2.33-2.32 2.325 2.325 0 00-2.33 2.32 2.325 2.325 0 002.33 2.32zM39.46 32.773h-1.27c-.04 0-.14.31-.14.44v6.43c0 .13-.06.27.09.37.15.1.22.08.33.08h5.04a5.798 5.798 0 000-1.92l-4.05-5.4z"/>
  <path fill="#25AB99" d="M38.5 55.223c2.7 0 4.89-2.176 4.89-4.86s-2.19-4.86-4.89-4.86c-2.701 0-4.89 2.176-4.89 4.86s2.189 4.86 4.89 4.86z"/>
  <path fill="#fff" d="M38.5 52.683a2.325 2.325 0 002.33-2.32 2.325 2.325 0 00-2.33-2.32 2.325 2.325 0 00-2.33 2.32 2.325 2.325 0 002.33 2.32z"/>
  <path fill="#1B917A" d="M35.49 23.763L9.22 43.973v-20.21h26.27z"/>
</svg>
