<svg xmlns="http://www.w3.org/2000/svg" width="66" height="67" fill="none" viewBox="0 0 66 67">
  <g clip-path="url(#clip0)">
    <path fill="#010201" d="M14.62 30.69h-.06a.189.189 0 01.06 0z"/>
    <path fill="#010201" d="M14.62 30.69h-.06a.189.189 0 01.06 0z"/>
    <path fill="#FDC161" d="M38.57 22.61c-.28-.16-.57-.3-.86-.43a.66.66 0 01-.38-.39v-.2-.11c.026-.42.083-.838.17-1.25.07-.27.16-.32.44-.36.28-.04.8 0 1.2-.09.4-.09.73-.42.47-.88s-.41-.68-.6-1a.41.41 0 01.08-.58c.32-.33.65-.66 1-1 .35-.34.27-.19.5-.06l1 .56c.51.28.89.06.91-.52-.02-.376-.02-.754 0-1.13 0-.34.07-.38.39-.48.32-.1.89-.11 1.33-.2h.19c.21 0 .29.2.38.37.09.17.3.52.42.79a.59.59 0 001 .08c.2-.33.44-.64.66-1a.45.45 0 01.47-.2c.476.087.939.232 1.38.43a.38.38 0 01.26.39c.028.406.035.813.02 1.22a.63.63 0 00.32.67.57.57 0 00.55 0c.39-.16.77-.33 1.16-.48.39-.15.38-.08.57.15l.77 1a.39.39 0 010 .58c-.21.31-.45.6-.67.89a.72.72 0 00.46 1.18l1.2.23c.21 0 .27.14.3.34 0 .36 0 .73.07 1.1v.43a.51.51 0 01-.32.27l-1 .36a.53.53 0 00-.35.32.82.82 0 00.27 1.11c.26.227.51.467.75.72a.36.36 0 01.12.43c-.18.413-.388.814-.62 1.2a.38.38 0 01-.46.18L51 27a.84.84 0 00-1 1c.1.39.2.78.29 1.17a.39.39 0 01-.19.47c-.36.22-.73.42-1.09.62a.36.36 0 01-.48-.07c-.24-.24-.5-.46-.72-.72a.86.86 0 00-1-.29.61.61 0 00-.44.4c-.11.32-.22.65-.32 1a.52.52 0 01-.32.37h-.68a6.466 6.466 0 00-.76 0c-.26 0-.33-.05-.39-.32s-.16-.77-.25-1.16a.781.781 0 00-1.22-.47c-.31.23-.6.51-.92.74a.41.41 0 01-.52 0 11.82 11.82 0 01-1-.76.42.42 0 01-.15-.59c.15-.38.3-.76.43-1.13a.68.68 0 00-.66-.91c-.4 0-.8.08-1.2.12-.4.04-.4 0-.52-.31s-.26-.71-.39-1.07c-.13-.36-.1-.48.22-.73s.64-.46.94-.71a.59.59 0 00-.09-1.04zm7 2.8a2.7 2.7 0 10-.03 0h.03z"/>
    <path fill="#EEA520" d="M27.18 14.94l-.55-.28a.38.38 0 01-.24-.25v-.12a.169.169 0 000-.07c.016-.27.053-.537.11-.8 0-.18.1-.21.28-.23.18-.02.51 0 .77-.06a.35.35 0 00.3-.57c-.12-.22-.26-.43-.38-.65a.25.25 0 01.05-.37l.62-.62c.13-.13.17-.13.33-.05l.64.36c.33.19.58 0 .59-.33.01-.33 0-.48 0-.72s.05-.25.25-.31.57-.07.85-.13h.2c.13 0 .19.13.25.24.06.11.19.33.26.51a.39.39 0 00.68 0c.12-.21.28-.4.42-.61a.28.28 0 01.3-.13c.302.063.597.157.88.28a.23.23 0 01.17.25 6.29 6.29 0 01-.05.75.4.4 0 00.2.43.37.37 0 00.35 0l.75-.31c.18-.07.24-.05.36.1.12.15.33.4.49.61.16.21.12.22 0 .37s-.28.38-.43.57a.46.46 0 00.29.76l.78.14c.13 0 .17.09.18.22.01.13 0 .47 0 .7V15a.35.35 0 01-.2.18l-.65.23a.309.309 0 00-.22.2.53.53 0 00.17.71l.49.46a.23.23 0 01.07.28 6.263 6.263 0 01-.4.77.23.23 0 01-.29.11l-.72-.16a.54.54 0 00-.63.63c.06.25.13.5.19.75a.25.25 0 01-.13.3c-.22.14-.46.27-.69.4a.23.23 0 01-.31 0c-.15-.15-.32-.29-.46-.46a.56.56 0 00-.66-.19.409.409 0 00-.28.26L32 20a.33.33 0 01-.2.24h-.44c-.16-.01-.32-.01-.48 0-.17 0-.21 0-.25-.2-.04-.2-.1-.5-.16-.74a.5.5 0 00-.79-.29c-.2.15-.38.33-.59.47a.26.26 0 01-.33 0c-.22-.15-.43-.32-.64-.49a.271.271 0 01-.09-.38c.1-.24.19-.48.28-.72a.44.44 0 00-.43-.58c-.25 0-.51.05-.77.07a.27.27 0 01-.33-.19c-.09-.23-.16-.46-.25-.69-.09-.23-.06-.31.14-.47.2-.16.41-.29.61-.45a.38.38 0 00-.1-.64zm4.46 1.79a1.73 1.73 0 100-3.46 1.73 1.73 0 000 3.46z"/>
    <path fill="#010201" d="M38.66 29.6l-.07.16a.48.48 0 01-.06-.24c.047.02.09.048.13.08zM35.76 58l-.08.18a1.1 1.1 0 01-.11-.35l.19.17zM37.61 46.35l-.12-.1v-.08c.05.052.091.113.12.18z"/>
    <path fill="#010201" d="M37.61 46.35l-.12-.1v-.08c.05.052.091.113.12.18zM35.57 57.85l.19.17-.08.18a1.1 1.1 0 01-.11-.35z"/>
    <path fill="#25AB99" d="M55.2 56.85a1.91 1.91 0 01-1.38-3.23A28.92 28.92 0 0060 22.71C55.58 11.59 45.39 4.53 32.69 3.82A1.913 1.913 0 1132.91 0c14.22.8 25.66 8.77 30.61 21.31a32.71 32.71 0 01-6.94 35 1.91 1.91 0 01-1.38.54zM3.19 25c-.153.02-.307.02-.46 0a1.93 1.93 0 01-1.4-2.34C6.1 3 25.56.77 25.76.75a1.91 1.91 0 012.09 1.73 1.92 1.92 0 01-1.7 2.12c-.71.08-17 2.06-21.11 19A1.91 1.91 0 013.19 25zM33.09 28.93v33.52c-.72 0-1.47 0-2.21-.09a29.1 29.1 0 01-12.79-4 30.744 30.744 0 01-2.85-1.91 29.055 29.055 0 01-4.57-4.17c-.21-.24-.42-.48-.62-.73a25.66 25.66 0 01-1.68-2.28V28.93A4.16 4.16 0 0112.69 25h16.08a4.16 4.16 0 014.32 3.93z"/>
    <path fill="#fff" d="M19.81 29.76h-9.1v3.52h9.1v-3.52z"/>
    <path fill="#EEA520" d="M31.01 29.76h-9.37v3.52h9.37v-3.52z"/>
    <path fill="#fff" d="M31 36.39h-6.04v5.54H31v-5.54zM23.15 36.39H10.71v13.08h12.44V36.39z"/>
    <path fill="#25AB99" d="M51 60.53a27.39 27.39 0 01-17.2 5.69 38.58 38.58 0 01-13-2.25 24.922 24.922 0 01-4.55-2.22 42.752 42.752 0 01-6.2-4.75C2.43 49.833-.857 40.69.19 29.57a1.913 1.913 0 013.81.35c-.7 7.38.78 13.95 4.37 19.37a25.66 25.66 0 001.68 2.28c.2.25.41.49.62.73.36.41.73.8 1.12 1.19a27.775 27.775 0 003.45 3c.56.42 1.14.83 1.74 1.22.36.24.73.46 1.11.69a29.1 29.1 0 0012.79 4c.74.06 1.49.09 2.21.09 5.86 0 11.5-1.67 15.53-4.9a1.918 1.918 0 012.39 3l-.01-.06z"/>
    <path fill="#EEA520" d="M17.05 53.49v4.2H17c-.6-.39-1.18-.8-1.74-1.22a27.775 27.775 0 01-3.45-3l5.24.02z"/>
    <path fill="#fff" d="M24.64 53.49h-5.92v4.2h5.92v-4.2z"/>
    <path fill="#EEA520" d="M31.34 53.49h-4.95v4.2h4.95v-4.2zM31 44.79h-6.04v4.68H31v-4.68z"/>
  </g>
  <defs>
    <clipPath id="clip0">
      <path fill="#fff" d="M0 0h65.85v66.22H0z"/>
    </clipPath>
  </defs>
</svg>
