<svg width="48" height="66" viewBox="0 0 48 66" fill="none" xmlns="http://www.w3.org/2000/svg"> <path d="M23.55 65.5199C36.5563 65.5199 47.1 54.9762 47.1 41.9699C47.1 28.9636 36.5563 18.4199 23.55 18.4199C10.5437 18.4199 0 28.9636 0 41.9699C0 54.9762 10.5437 65.5199 23.55 65.5199Z"
                                                                                                      fill="url(#paint0_linear)"/> <path d="M23.33 43C22.2691 43 21.2517 42.5785 20.5016 41.8284C19.7514 41.0782 19.33 40.0608 19.33 39C19.33 34.71 21.89 30.45 24.61 25.93C29.56 17.72 31.1 13.76 27.83 10.54C25.45 8.20996 23.12 7.53996 20.68 8.53996C17.68 9.74996 15.8 12.84 15.77 13.87C15.77 14.9308 15.3486 15.9482 14.5984 16.6984C13.8483 17.4485 12.8309 17.87 11.77 17.87C10.7091 17.87 9.69172 17.4485 8.94157 16.6984C8.19142 15.9482 7.77 14.9308 7.77 13.87C7.77 9.10996 12.15 3.39996 17.54 1.14996C22.93 -1.10004 28.83 0.149963 33.54 4.80996C41.87 13.01 35.92 22.89 31.54 30.1C29.6 33.31 27.41 36.96 27.41 39.01C27.4088 39.5412 27.3017 40.0669 27.0951 40.5563C26.8885 41.0457 26.5865 41.4891 26.2067 41.8606C25.8269 42.232 25.3769 42.524 24.883 42.7197C24.3891 42.9153 23.8611 43.0106 23.33 43Z" fill="url(#paint1_linear)"/> <path d="M23.55 59.4C25.9524 59.4 27.9 57.4524 27.9 55.0499C27.9 52.6475 25.9524 50.7 23.55 50.7C21.1476 50.7 19.2 52.6475 19.2 55.0499C19.2 57.4524 21.1476 59.4 23.55 59.4Z" fill="#1D907A"/> <defs> <linearGradient id="paint0_linear" x1="21.13" y1="44.3499" x2="41.7" y2="24.0299" gradientUnits="userSpaceOnUse"> <stop stop-color="#FAC97A"/> <stop offset="0.16" stop-color="#FAC97A" stop-opacity="0.75"/> <stop offset="0.33" stop-color="#FAC97A" stop-opacity="0.52"/> <stop offset="0.49" stop-color="#FBCA7A" stop-opacity="0.33"/> <stop offset="0.64" stop-color="#FBCA7A" stop-opacity="0.19"/> <stop offset="0.78" stop-color="#FBCA7A" stop-opacity="0.09"/> <stop offset="0.9" stop-color="#FBCA7A" stop-opacity="0.02"/> <stop offset="1" stop-color="#FBCA7A" stop-opacity="0"/> </linearGradient> <linearGradient id="paint1_linear" x1="17.63" y1="6.85996" x2="37.96" y2="41.68" gradientUnits="userSpaceOnUse"> <stop stop-color="#3CBDA9"/> <stop offset="0.23" stop-color="#36B5A2"/> <stop offset="0.58" stop-color="#26A08E"/> <stop offset="1" stop-color="#0C7F6E"/> </linearGradient> </defs> </svg>