<svg id="Capa_1" enable-background="new 0 0 512 512" height="512" viewBox="0 0 512 512" width="512" xmlns="http://www.w3.org/2000/svg"><g><g><path clip-rule="evenodd" d="m98.997 232.17s136.078-35.8 210.003-30.222l58.107 48.503 115.944-149.899-130.412-95.763c-5.023-3.241-10.396-4.789-15.565-4.789 0 0 0 0-.029 0-13.491 0-25.581 10.542-25.902 28.736v26.283c-204.572 3.11-333.564 176.733-306.787 396.546l23.948 25.339z" fill="#75cef8" fill-rule="evenodd"/></g><g><path clip-rule="evenodd" d="m313.566 153.433c-143.558-7.184-265.945 52.916-283.963 285.401-1.256 16.178-17.288 21.698-25.26 12.733 1.898 15.448 4.556 31.16 8.001 47.017 3.387 20.15 27.713 16.5 29.29-3.592 18.544-238.998 121.657-295.302 269.508-284.146v26.283c.467 25.173 23.42 35.715 41.496 23.947l143.529-105.394c19.974-12.002 19.974-33.496 0-45.498l-13.112-9.637-115.698 100.224c-18.047 11.769-26.574 25.991-27.041.788v-32.561c-.001-15.711-11.535-14.806-26.75-15.565z" fill="#60b7ff" fill-rule="evenodd"/></g></g></svg>