<svg id="svg6331" height="512" viewBox="0 0 32 32" width="512" xmlns="http://www.w3.org/2000/svg" xmlns:svg="http://www.w3.org/2000/svg"><g id="layer1"><path id="path1399" d="m13 4c-2.1973 0-3.9999999 1.80273-3.9999999 4 0 .73066.2136 1.40837.5605 2h-4.5605c-.5523.00006-.9999.44774-1 1v4c.0001.55226.4477.99994 1 1h1 7.5507999 2.1484 2.5996 1.0547 6.6465 1c.5523-.00006.9999-.44774 1-1v-4c-.0001-.55226-.4477-.99994-1-1h-4.5606c.3469-.59163.5606-1.26932.5606-2 0-2.19727-1.8027-4-4-4-1.1971 0-2.2648.5462-3 1.38867-.7351-.84247-1.8028-1.38867-3-1.38867zm0 2c1.1165 0 2 .88357 2 2v2h-2c-1.1165 0-2-.88357-2-2s.8835-2 2-2zm6 0c1.1165 0 2 .88357 2 2 0 1.11638-.8836 2-2 2h-2v-2c0-1.11643.8835-2 2-2zm-12.9999999 12v9c.0001.55226.4477.99994 1 1h7.9999999v-1.2207-8.7793h-1.2207zm10.9999999 0v8.55078 1.44922h8c.5523-.00006.9999-.44774 1-1v-9h-6.5918-1.1094z" font-variant-ligatures="normal" font-variant-position="normal" font-variant-caps="normal" font-variant-numeric="normal" font-variant-alternates="normal" font-feature-settings="normal" text-indent="0" text-align="start" text-decoration-line="none" text-decoration-style="solid" text-decoration-color="rgb(0,0,0)" text-transform="none" text-orientation="mixed" white-space="normal" shape-padding="0" isolation="auto" mix-blend-mode="normal" solid-color="rgb(0,0,0)" solid-opacity="1" vector-effect="none" paint-order="normal"/></g></svg>