<?xml version="1.0" encoding="UTF-8"?>
<svg xmlns="http://www.w3.org/2000/svg" id="Glyph" viewBox="0 0 24 24" width="512" height="512"><path d="M14.6055,12.7271a.4819.4819,0,0,0,.5605-.2012,1.0355,1.0355,0,0,1,1.666-.003.5.5,0,0,0,.918-.2744V9h-3.5v3.2485A.4856.4856,0,0,0,14.6055,12.7271Z"/><path d="M14.6055,18.7271a.4831.4831,0,0,0,.5605-.2012,1.0355,1.0355,0,0,1,1.666-.003.5.5,0,0,0,.918-.2744V17h-3.5v1.2485A.4856.4856,0,0,0,14.6055,18.7271Z"/><path d="M20,17H18.25v1.2485a.9829.9829,0,0,1-.7109.9576,1.0412,1.0412,0,0,1-.3.0449.9793.9793,0,0,1-.8213-.4478.5125.5125,0,0,0-.834-.0029,1,1,0,0,1-1.834-.5518V17H12a1,1,0,0,0-1,1v4a1,1,0,0,0,1,1h8a1,1,0,0,0,1-1V18A1,1,0,0,0,20,17Z"/><path d="M4.6055,17.7271a.4819.4819,0,0,0,.5605-.2012,1.0355,1.0355,0,0,1,1.666-.003.5.5,0,0,0,.918-.2744V15H4.25v2.2485A.4856.4856,0,0,0,4.6055,17.7271Z"/><path d="M4.6055,10.7271a.4824.4824,0,0,0,.5605-.2012,1.0355,1.0355,0,0,1,1.666-.003.5.5,0,0,0,.918-.2744V9H4.25v1.2485A.4856.4856,0,0,0,4.6055,10.7271Z"/><path d="M10.5,18a1.4912,1.4912,0,0,1,.5-1.11V16a1,1,0,0,0-1-1H8.25v2.2485a.9829.9829,0,0,1-.7109.9576,1.0412,1.0412,0,0,1-.3.0449.9793.9793,0,0,1-.8213-.4478A.5125.5125,0,0,0,5.584,17.8a1,1,0,0,1-1.834-.5518V15H2a1,1,0,0,0-1,1v6a1,1,0,0,0,1,1h8a.9936.9936,0,0,0,.6912-.2822A1.48,1.48,0,0,1,10.5,22Z"/><path d="M9,14V10a.9862.9862,0,0,0-.75-.95v1.198a.9829.9829,0,0,1-.7109.9576,1.0412,1.0412,0,0,1-.3.0449.9793.9793,0,0,1-.8213-.4478A.5125.5125,0,0,0,5.584,10.8a1,1,0,0,1-1.834-.5518V9.0505A.9862.9862,0,0,0,3,10v4a.9712.9712,0,0,0,.1533.5H8.8467A.9712.9712,0,0,0,9,14Z"/><path d="M22,9H18.25v3.2485a.9829.9829,0,0,1-.7109.9576,1.0412,1.0412,0,0,1-.3.0449.9793.9793,0,0,1-.8213-.4478.5125.5125,0,0,0-.834-.0029,1,1,0,0,1-1.834-.5518V9H10a.9972.9972,0,0,0-.7059.2935A1.4331,1.4331,0,0,1,9.5,10v4a1.3685,1.3685,0,0,1-.11.5H10A1.5017,1.5017,0,0,1,11.5,16v.5921A1.4836,1.4836,0,0,1,12,16.5h8A1.5017,1.5017,0,0,1,21.5,18v4a1.4888,1.4888,0,0,1-.39,1H22a1.0029,1.0029,0,0,0,1-1V10A1.0029,1.0029,0,0,0,22,9Z"/><path d="M10.6055,2.7271a.4824.4824,0,0,0,.5605-.2012,1.0355,1.0355,0,0,1,1.666-.003.5.5,0,0,0,.918-.2744V1h-3.5V2.2485A.4856.4856,0,0,0,10.6055,2.7271Z"/><path d="M15.8467,8.5A.9712.9712,0,0,0,16,8V2a1,1,0,0,0-1-1h-.75V2.2485a.9829.9829,0,0,1-.7109.9576,1.0412,1.0412,0,0,1-.3.0449.9793.9793,0,0,1-.8213-.4478A.5125.5125,0,0,0,11.584,2.8,1,1,0,0,1,9.75,2.2485V1H9A1,1,0,0,0,8,2V8a.9721.9721,0,0,0,.1592.5089l.2187.058a1.4009,1.4009,0,0,1,.5947.3458A1.4916,1.4916,0,0,1,10,8.5Z"/></svg>
