<svg id="bold_1_" enable-background="new 0 0 24 24" height="512" viewBox="0 0 24 24" width="512" xmlns="http://www.w3.org/2000/svg"><path d="m14.318 9c-.147 0-.294-.043-.422-.13l-1.896-1.29-1.896 1.29c-.257.176-.597.174-.852-.006-.255-.178-.374-.496-.297-.799l.597-2.353-1.789-1.527c-.233-.2-.322-.52-.223-.81.098-.291.362-.492.668-.51l2.265-.128.824-2.245c.107-.296.389-.492.703-.492s.596.196.704.492l.824 2.245 2.265.128c.306.018.57.219.668.51.098.29.01.61-.223.81l-1.789 1.528.597 2.353c.077.303-.042.62-.297.799-.13.09-.281.135-.431.135z"/><path d="m23.25 19h-4.75v4.25c0 .26-.05.52-.13.75h4.88c.41 0 .75-.34.75-.75v-3.5c0-.41-.34-.75-.75-.75z"/><path d="m5.5 17h-4.75c-.41 0-.75.34-.75.75v5.5c0 .41.34.75.75.75h4.88c-.08-.23-.13-.49-.13-.75z"/><path d="m16.25 11h-8.5c-.414 0-.75.336-.75.75v11.5c0 .414.336.75.75.75h8.5c.414 0 .75-.336.75-.75v-11.5c0-.414-.336-.75-.75-.75zm-3.5 8.25c0 .414-.336.75-.75.75s-.75-.336-.75-.75v-2.941c-.153-.137-.25-.337-.25-.559 0-.414.336-.75.75-.75h.25c.414 0 .75.336.75.75z"/></svg>