<svg height="512" viewBox="0 0 64 64" width="512" xmlns="http://www.w3.org/2000/svg"><g id="cart-screen-mobile-smartphone"><rect height="2" rx="1" width="2" x="35" y="47"/><path d="m60 36h-7v-31a3.009 3.009 0 0 0 -3-3h-28a3.009 3.009 0 0 0 -3 3v1h-16a1 1 0 0 0 -1 1v29a1 1 0 0 0 1 1h16v13a3.009 3.009 0 0 0 3 3h10v9h2v-9h16a3.009 3.009 0 0 0 3-3v-6a1 1 0 0 0 -1-1h-6a1 1 0 0 1 -1-1v-3a1 1 0 0 1 1-1h14v12.59l-4.71 4.7a1.033 1.033 0 0 0 -.29.71v6h2v-5.59l4.71-4.7a1.033 1.033 0 0 0 .29-.71v-13a2.006 2.006 0 0 0 -2-2zm-56-1v-27h30v9.08a1.022 1.022 0 0 0 .3.72l3.18 3.11-3.09 2.35a1.019 1.019 0 0 0 -.39.8v10.94zm47 10v5a1 1 0 0 1 -1 1h-28a1 1 0 0 1 -1-1v-5zm0-9h-5a3.009 3.009 0 0 0 -3 3v3a3 3 0 0 0 .18 1h-22.18v-6h14a1 1 0 0 0 1-1v-11.45l3.61-2.76a.99.99 0 0 0 .39-.73.968.968 0 0 0 -.3-.77l-3.7-3.63v-9.66a1 1 0 0 0 -1-1h-14v-1a1 1 0 0 1 1-1h28a1 1 0 0 1 1 1z"/><path d="m27 27h-14a3 3 0 1 0 3 3 2.966 2.966 0 0 0 -.184-1h8.368a2.966 2.966 0 0 0 -.184 1 3 3 0 1 0 3-3zm-13 3a1 1 0 1 1 -1-1 1 1 0 0 1 1 1zm13 1a1 1 0 1 1 1-1 1 1 0 0 1 -1 1z"/><path d="m31.77 13.36a.992.992 0 0 0 -.77-.36h-19v-2a1 1 0 0 0 -1-1h-5v2h4v13a1 1 0 0 0 1 1h18a1 1 0 0 0 .98-.82l2-11a.977.977 0 0 0 -.21-.82zm-3.6 10.64h-16.17v-9h17.8z"/><path d="m44 23a6 6 0 1 0 6 6 6.006 6.006 0 0 0 -6-6zm0 10a4 4 0 1 1 4-4 4 4 0 0 1 -4 4z"/><path d="m43 29.586-1.293-1.293-1.414 1.414 2 2a1 1 0 0 0 1.414 0l4-4-1.414-1.414z"/><path d="m38 8h11v2h-11z"/><path d="m38 12h6v2h-6z"/><path d="m46 12h3v2h-3z"/></g></svg>