<svg width="25" height="24" viewBox="0 0 25 24" fill="none" xmlns="http://www.w3.org/2000/svg">
<g clip-path="url(#clip0_104_1090)">
<path fill-rule="evenodd" clip-rule="evenodd" d="M1.40538 2.04578C0.986021 1.89834 0.526546 2.11878 0.379109 2.53813C0.231672 2.95749 0.452106 3.41696 0.871461 3.5644L1.15178 3.66295C1.86823 3.91484 2.33909 4.08177 2.68555 4.25177C3.01096 4.41144 3.15441 4.54068 3.24891 4.67897C3.34577 4.82072 3.42058 5.01542 3.46278 5.40535C3.50695 5.81337 3.50804 6.34482 3.50804 7.1389V10.0597C3.50804 11.6185 3.52267 12.7424 3.66975 13.6012C3.82678 14.518 4.14028 15.1744 4.72648 15.7927C5.36379 16.4649 6.17167 16.7575 7.13348 16.8939C8.0545 17.0245 9.22408 17.0245 10.6682 17.0245L16.4695 17.0245C17.2654 17.0245 17.9351 17.0245 18.477 16.9582C19.052 16.8878 19.5763 16.734 20.034 16.361C20.4917 15.9881 20.7482 15.5056 20.9332 14.9567C21.1075 14.4393 21.2427 13.7834 21.4033 13.0038L21.9495 10.3539L21.9505 10.3489L21.9617 10.2928C22.1384 9.40759 22.2871 8.66293 22.3241 8.06399C22.3629 7.4349 22.2913 6.8146 21.8815 6.2819C21.6294 5.95413 21.2748 5.76857 20.9524 5.65526C20.6234 5.53969 20.2515 5.47283 19.8762 5.43088C19.1389 5.34845 18.2432 5.34847 17.3647 5.34848L5.07465 5.34848C5.07112 5.30904 5.0673 5.27025 5.06318 5.23212C5.00552 4.69942 4.88058 4.21358 4.57797 3.77075C4.273 3.32447 3.86751 3.03864 3.39464 2.80662C2.9524 2.58963 2.39046 2.39209 1.72883 2.1595L1.40538 2.04578ZM5.11778 6.95822H17.3312C18.2502 6.95822 19.059 6.9593 19.6974 7.03065C20.0145 7.06611 20.2519 7.11537 20.4187 7.17398C20.5551 7.22188 20.6012 7.261 20.6079 7.26666C20.6077 7.26654 20.6081 7.2669 20.6079 7.26666C20.6737 7.35403 20.7453 7.51253 20.7174 7.96482C20.688 8.44084 20.563 9.07642 20.3724 10.0315L20.3719 10.0338L19.8366 12.631C19.6634 13.4711 19.5469 14.0296 19.4077 14.4426C19.2756 14.8347 19.1515 15.0037 19.0171 15.1132C18.8827 15.2227 18.6922 15.3101 18.2815 15.3604C17.8488 15.4133 17.2784 15.4147 16.4206 15.4147H10.7298C9.20933 15.4147 8.15435 15.4128 7.35949 15.3001C6.59238 15.1913 6.18713 14.9936 5.89465 14.6851C5.55106 14.3228 5.36574 13.9679 5.25639 13.3294C5.13709 12.6329 5.11778 11.6576 5.11778 10.0597L5.11778 6.95822Z" fill="#64748B"/>
<path fill-rule="evenodd" clip-rule="evenodd" d="M7.0408 22.9269C5.70725 22.9269 4.62619 21.8458 4.62619 20.5122C4.62619 19.1787 5.70725 18.0976 7.0408 18.0976C8.37436 18.0976 9.45542 19.1787 9.45542 20.5122C9.45542 21.8458 8.37436 22.9269 7.0408 22.9269ZM6.23593 20.5122C6.23593 20.9568 6.59629 21.3171 7.0408 21.3171C7.48532 21.3171 7.84568 20.9568 7.84568 20.5122C7.84568 20.0677 7.48532 19.7074 7.0408 19.7074C6.59629 19.7074 6.23593 20.0677 6.23593 20.5122Z" fill="#64748B"/>
<path fill-rule="evenodd" clip-rule="evenodd" d="M16.6993 22.9269C15.3657 22.9269 14.2846 21.8459 14.2846 20.5123C14.2846 19.1788 15.3657 18.0977 16.6993 18.0977C18.0328 18.0977 19.1139 19.1788 19.1139 20.5123C19.1139 21.8459 18.0328 22.9269 16.6993 22.9269ZM15.8944 20.5123C15.8944 20.9568 16.2547 21.3172 16.6993 21.3172C17.1438 21.3172 17.5041 20.9568 17.5041 20.5123C17.5041 20.0678 17.1438 19.7075 16.6993 19.7075C16.2547 19.7075 15.8944 20.0678 15.8944 20.5123Z" fill="#64748B"/>
</g>
<defs>
<clipPath id="clip0_104_1090">
<rect width="24" height="24" fill="white" transform="translate(0.833328)"/>
</clipPath>
</defs>
</svg>
