<svg width="25" height="24" viewBox="0 0 25 24" fill="none" xmlns="http://www.w3.org/2000/svg">
<path fill-rule="evenodd" clip-rule="evenodd" d="M6.61466 1.75C5.71619 1.74997 4.96695 1.74995 4.37218 1.82991C3.74438 1.91432 3.17758 2.09999 2.72211 2.55546C2.26664 3.01093 2.08097 3.57773 1.99657 4.20552C1.9166 4.8003 1.91663 5.54951 1.91665 6.44798V6.552C1.91663 7.45047 1.9166 8.19971 1.99657 8.79448C2.08097 9.42228 2.26664 9.98908 2.72211 10.4445C3.17758 10.9 3.74438 11.0857 4.37218 11.1701C4.96695 11.2501 5.71616 11.25 6.61463 11.25H6.71865C7.61712 11.25 8.36636 11.2501 8.96113 11.1701C9.58893 11.0857 10.1557 10.9 10.6112 10.4445C11.0667 9.98908 11.2523 9.42228 11.3367 8.79448C11.4167 8.19971 11.4167 7.4505 11.4167 6.55203V6.44801C11.4167 5.54954 11.4167 4.8003 11.3367 4.20552C11.2523 3.57773 11.0667 3.01093 10.6112 2.55546C10.1557 2.09999 9.58893 1.91432 8.96113 1.82991C8.36636 1.74995 7.61715 1.74997 6.71868 1.75H6.61466ZM3.78277 3.61612C3.91309 3.4858 4.11059 3.37858 4.57205 3.31654C5.05508 3.2516 5.70264 3.25 6.66666 3.25C7.63067 3.25 8.27823 3.2516 8.76126 3.31654C9.22272 3.37858 9.42022 3.4858 9.55054 3.61612C9.68086 3.74644 9.78808 3.94393 9.85012 4.4054C9.91506 4.88843 9.91666 5.53599 9.91666 6.5C9.91666 7.46401 9.91506 8.11157 9.85012 8.59461C9.78808 9.05607 9.68086 9.25357 9.55054 9.38389C9.42022 9.5142 9.22272 9.62143 8.76126 9.68347C8.27823 9.74841 7.63067 9.75 6.66666 9.75C5.70264 9.75 5.05508 9.74841 4.57205 9.68347C4.11059 9.62143 3.91309 9.5142 3.78277 9.38389C3.65246 9.25357 3.54523 9.05607 3.48319 8.59461C3.41825 8.11157 3.41666 7.46401 3.41666 6.5C3.41666 5.53599 3.41825 4.88843 3.48319 4.4054C3.54523 3.94393 3.65246 3.74644 3.78277 3.61612Z" fill="#64748B"/>
<path fill-rule="evenodd" clip-rule="evenodd" d="M17.6147 12.75C16.7162 12.75 15.967 12.7499 15.3722 12.8299C14.7444 12.9143 14.1776 13.1 13.7221 13.5555C13.2666 14.0109 13.081 14.5777 12.9966 15.2055C12.9166 15.8003 12.9166 16.5495 12.9167 17.448V17.552C12.9166 18.4505 12.9166 19.1997 12.9966 19.7945C13.081 20.4223 13.2666 20.9891 13.7221 21.4445C14.1776 21.9 14.7444 22.0857 15.3722 22.1701C15.9669 22.2501 16.7161 22.25 17.6146 22.25H17.7186C18.6171 22.25 19.3664 22.2501 19.9611 22.1701C20.5889 22.0857 21.1557 21.9 21.6112 21.4445C22.0667 20.9891 22.2523 20.4223 22.3367 19.7945C22.4167 19.1997 22.4167 18.4505 22.4167 17.5521V17.448C22.4167 16.5496 22.4167 15.8003 22.3367 15.2055C22.2523 14.5777 22.0667 14.0109 21.6112 13.5555C21.1557 13.1 20.5889 12.9143 19.9611 12.8299C19.3664 12.7499 18.6171 12.75 17.7187 12.75H17.6147ZM14.7828 14.6161C14.9131 14.4858 15.1106 14.3786 15.572 14.3165C16.0551 14.2516 16.7026 14.25 17.6667 14.25C18.6307 14.25 19.2782 14.2516 19.7613 14.3165C20.2227 14.3786 20.4202 14.4858 20.5505 14.6161C20.6809 14.7464 20.7881 14.9439 20.8501 15.4054C20.9151 15.8884 20.9167 16.536 20.9167 17.5C20.9167 18.464 20.9151 19.1116 20.8501 19.5946C20.7881 20.0561 20.6809 20.2536 20.5505 20.3839C20.4202 20.5142 20.2227 20.6214 19.7613 20.6835C19.2782 20.7484 18.6307 20.75 17.6667 20.75C16.7026 20.75 16.0551 20.7484 15.572 20.6835C15.1106 20.6214 14.9131 20.5142 14.7828 20.3839C14.6525 20.2536 14.5452 20.0561 14.4832 19.5946C14.4182 19.1116 14.4167 18.464 14.4167 17.5C14.4167 16.536 14.4182 15.8884 14.4832 15.4054C14.5452 14.9439 14.6525 14.7464 14.7828 14.6161Z" fill="#64748B"/>
<path fill-rule="evenodd" clip-rule="evenodd" d="M6.61466 12.75H6.71866C7.61713 12.75 8.36635 12.7499 8.96113 12.8299C9.58893 12.9143 10.1557 13.1 10.6112 13.5555C11.0667 14.0109 11.2523 14.5777 11.3367 15.2055C11.4167 15.8003 11.4167 16.5495 11.4167 17.448V17.552C11.4167 18.4505 11.4167 19.1997 11.3367 19.7945C11.2523 20.4223 11.0667 20.9891 10.6112 21.4445C10.1557 21.9 9.58893 22.0857 8.96113 22.1701C8.36637 22.2501 7.61717 22.25 6.71871 22.25H6.61466C5.71621 22.25 4.96694 22.2501 4.37218 22.1701C3.74438 22.0857 3.17758 21.9 2.72211 21.4445C2.26664 20.9891 2.08097 20.4223 1.99657 19.7945C1.9166 19.1997 1.91663 18.4505 1.91665 17.552V17.448C1.91663 16.5495 1.9166 15.8003 1.99657 15.2055C2.08097 14.5777 2.26664 14.0109 2.72211 13.5555C3.17758 13.1 3.74438 12.9143 4.37218 12.8299C4.96696 12.7499 5.71618 12.75 6.61466 12.75ZM4.57205 14.3165C4.11059 14.3786 3.91309 14.4858 3.78277 14.6161C3.65246 14.7464 3.54523 14.9439 3.48319 15.4054C3.41825 15.8884 3.41666 16.536 3.41666 17.5C3.41666 18.464 3.41825 19.1116 3.48319 19.5946C3.54523 20.0561 3.65246 20.2536 3.78277 20.3839C3.91309 20.5142 4.11059 20.6214 4.57205 20.6835C5.05508 20.7484 5.70264 20.75 6.66666 20.75C7.63067 20.75 8.27823 20.7484 8.76126 20.6835C9.22272 20.6214 9.42022 20.5142 9.55054 20.3839C9.68086 20.2536 9.78808 20.0561 9.85012 19.5946C9.91506 19.1116 9.91666 18.464 9.91666 17.5C9.91666 16.536 9.91506 15.8884 9.85012 15.4054C9.78808 14.9439 9.68086 14.7464 9.55054 14.6161C9.42022 14.4858 9.22272 14.3786 8.76126 14.3165C8.27823 14.2516 7.63067 14.25 6.66666 14.25C5.70264 14.25 5.05508 14.2516 4.57205 14.3165Z" fill="#64748B"/>
<path fill-rule="evenodd" clip-rule="evenodd" d="M17.6147 1.75C16.7162 1.74997 15.967 1.74995 15.3722 1.82991C14.7444 1.91432 14.1776 2.09999 13.7221 2.55546C13.2666 3.01093 13.081 3.57773 12.9966 4.20552C12.9166 4.8003 12.9166 5.54952 12.9167 6.448V6.552C12.9166 7.45048 12.9166 8.1997 12.9966 8.79448C13.081 9.42228 13.2666 9.98908 13.7221 10.4445C14.1776 10.9 14.7444 11.0857 15.3722 11.1701C15.967 11.2501 16.7162 11.25 17.6146 11.25H17.7186C18.6171 11.25 19.3664 11.2501 19.9611 11.1701C20.5889 11.0857 21.1557 10.9 21.6112 10.4445C22.0667 9.98908 22.2523 9.42228 22.3367 8.79448C22.4167 8.19971 22.4167 7.4505 22.4167 6.55203V6.44801C22.4167 5.54954 22.4167 4.8003 22.3367 4.20552C22.2523 3.57773 22.0667 3.01093 21.6112 2.55546C21.1557 2.09999 20.5889 1.91432 19.9611 1.82991C19.3664 1.74995 18.6171 1.74997 17.7187 1.75H17.6147ZM14.7828 3.61612C14.9131 3.4858 15.1106 3.37858 15.572 3.31654C16.0551 3.2516 16.7026 3.25 17.6667 3.25C18.6307 3.25 19.2782 3.2516 19.7613 3.31654C20.2227 3.37858 20.4202 3.4858 20.5505 3.61612C20.6809 3.74644 20.7881 3.94393 20.8501 4.4054C20.9151 4.88843 20.9167 5.53599 20.9167 6.5C20.9167 7.46401 20.9151 8.11157 20.8501 8.59461C20.7881 9.05607 20.6809 9.25357 20.5505 9.38389C20.4202 9.5142 20.2227 9.62143 19.7613 9.68347C19.2782 9.74841 18.6307 9.75 17.6667 9.75C16.7026 9.75 16.0551 9.74841 15.572 9.68347C15.1106 9.62143 14.9131 9.5142 14.7828 9.38389C14.6525 9.25357 14.5452 9.05607 14.4832 8.59461C14.4182 8.11157 14.4167 7.46401 14.4167 6.5C14.4167 5.53599 14.4182 4.88843 14.4832 4.4054C14.5452 3.94393 14.6525 3.74644 14.7828 3.61612Z" fill="#64748B"/>
</svg>
