<svg id="Capa_1" enable-background="new 0 0 512 512" height="512" viewBox="0 0 512 512" width="512" xmlns="http://www.w3.org/2000/svg"><path d="m472.618 226.271c16.385-27.85 2.263-63.743-28.618-73.119v-47.152c0-41.355-33.645-75-75-75h-67.187c-7.732-17.641-25.352-30-45.813-30s-38.081 12.359-45.813 30h-66.687c-41.355 0-75 33.645-75 75v47.302c-30.398 9.58-44.31 44.947-28.312 72.631-23.566 9.77-40.188 33.01-40.188 60.067v45c0 8.284 6.716 15 15 15h53.5v45c0 41.355 33.645 75 75 75h30v30c0 8.284 6.716 15 15 15h135c8.284 0 15-6.716 15-15v-30h30.5c41.355 0 75-33.645 75-75v-45h53c8.284 0 15-6.716 15-15v-45c0-26.748-16.244-49.767-39.382-59.729zm-43.118-5.271c-11.028 0-20-8.972-20-20s8.972-20 20-20 20 8.972 20 20-8.972 20-20 20zm-191-120h35c19.299 0 35 15.701 35 35v30h-105v-30c0-19.299 15.701-35 35-35zm17.5-70c11.028 0 20 8.972 20 20s-8.972 20-20 20-20-8.972-20-20 8.972-20 20-20zm-172.5 150c11.028 0 20 8.972 20 20s-8.972 20-20 20-20-8.972-20-20 8.972-20 20-20zm-53.5 105c0-19.299 15.701-35 35-35h36c19.299 0 35 15.701 35 35v30h-106zm278.5 195h-105v-30c0-19.299 15.701-35 35-35h35c19.299 0 35 15.701 35 35zm-52.5-95c-11.028 0-20-8.972-20-20s8.972-20 20-20 20 8.972 20 20-8.972 20-20 20zm158 5c0 24.813-20.187 45-45 45h-32.266c-4.779-20.144-18.944-36.69-37.616-44.729 4.366-7.421 6.882-16.056 6.882-25.271 0-27.57-22.43-50-50-50s-50 22.43-50 50c0 9.215 2.516 17.85 6.882 25.271-18.672 8.039-32.837 24.585-37.616 44.729h-31.766c-24.813 0-45-20.187-45-45v-45h52.5c8.284 0 15-6.716 15-15v-45c0-26.748-16.244-49.767-39.382-59.729 16.228-27.582 2.546-63.305-28.118-72.969v-47.302c0-24.813 20.187-45 45-45h63.506c1.114 5.467 3.132 10.607 5.876 15.271-23.138 9.962-39.382 32.981-39.382 59.729v45c0 8.284 6.716 15 15 15h135c8.284 0 15-6.716 15-15v-45c0-26.748-16.244-49.767-39.382-59.729 2.744-4.664 4.762-9.803 5.876-15.271h64.006c24.813 0 45 20.187 45 45v47.471c-30.171 9.864-43.659 45.039-27.812 72.461-23.566 9.771-40.188 33.011-40.188 60.068v45c0 8.284 6.716 15 15 15h53zm68-75h-106v-30c0-19.299 15.701-35 35-35h36c19.299 0 35 15.701 35 35z"/></svg>