<svg id="Sales" height="512" viewBox="0 0 64 64" width="512" xmlns="http://www.w3.org/2000/svg"><rect fill="#86a8c3" height="58" rx="4" width="40" x="5" y="3"/><path d="m39 7h-6l-.621 2.485a2 2 0 0 1 -1.941 1.515h-10.876a2 2 0 0 1 -1.941-1.515l-.621-2.485h-6a2 2 0 0 0 -2 2v46a2 2 0 0 0 2 2h28a2 2 0 0 0 2-2v-46a2 2 0 0 0 -2-2z" fill="#5bcbfa"/><rect fill="#365e7d" height="33" rx="2.5" width="5" x="14" y="16"/><path d="m57 19h-38a2 2 0 0 0 -2 2v6a5 5 0 0 1 0 10v6a2 2 0 0 0 2 2h38a2 2 0 0 0 2-2v-22a2 2 0 0 0 -2-2z" fill="#fbdf63"/><circle cx="40" cy="29" fill="#fff" r="2"/><circle cx="48" cy="35" fill="#fff" r="2"/><rect fill="#fff" height="2" rx="1" transform="matrix(.669 -.743 .743 .669 -9.22 43.298)" width="13.454" x="37.273" y="31"/><g fill="#f3ac3c"><path d="m27 24h2v4h-2z"/><path d="m27 30h2v4h-2z"/><path d="m27 36h2v4h-2z"/><path d="m27 19h2v3h-2z"/><path d="m27 42h2v3h-2z"/></g></svg>