<svg id="Layer_1" enable-background="new 0 0 512 512" viewBox="0 0 512 512" xmlns="http://www.w3.org/2000/svg"><g><path d="m440.442 115.632c-2.991-2.867-7.739-2.767-10.604.224l-155.213 161.903 54.38-154.219c1.377-3.906-.673-8.19-4.579-9.567-3.909-1.378-8.19.673-9.567 4.579l-58.859 166.919-58.858-166.918c-1.378-3.906-5.663-5.955-9.567-4.579-3.906 1.377-5.957 5.661-4.579 9.567l54.38 154.219-155.213-161.904c-2.867-2.989-7.615-3.09-10.604-.224s-3.09 7.614-.224 10.604l179.251 186.978c.043.045.091.084.135.128.059.058.12.114.181.17.218.202.445.392.683.566.038.028.074.059.112.086.273.191.56.36.855.513.073.038.147.072.222.108.273.13.552.246.839.343.039.013.077.03.117.043.32.102.648.176.98.234.083.014.166.026.249.038.344.048.69.082 1.041.082s.698-.033 1.041-.082c.084-.012.167-.024.249-.038.332-.058.661-.132.98-.234.04-.013.078-.03.117-.043.287-.096.565-.212.838-.343.074-.036.149-.07.222-.108.295-.153.582-.321.855-.513.039-.027.074-.058.112-.086.238-.174.465-.363.683-.566.061-.056.122-.112.181-.17.044-.044.092-.083.135-.127l179.251-186.978c2.868-2.99 2.768-7.738-.222-10.605z" fill="#665e66"/><path d="m385.803 512h-38.117l-89.626-11.739-93.746 11.739h-38.117c-6.827 0-12.362-5.535-12.362-12.362v-210.157c0-6.827 5.535-12.362 12.362-12.362h259.606c6.827 0 12.362 5.535 12.362 12.362v210.157c0 6.827-5.535 12.362-12.362 12.362z" fill="#ce9875"/><path d="m164.314 512v-84.557c0-4.506 3.653-8.159 8.159-8.159h167.055c4.506 0 8.159 3.653 8.159 8.159v84.557z" fill="#f6f1f1"/><g fill="#665e66"><path d="m316.781 473.594h-121.561c-4.142 0-7.5 3.358-7.5 7.5s3.358 7.5 7.5 7.5h121.562c4.142 0 7.5-3.358 7.5-7.5s-3.359-7.5-7.501-7.5z"/><path d="m195.219 457.689h63.872c4.142 0 7.5-3.358 7.5-7.5s-3.358-7.5-7.5-7.5h-63.872c-4.142 0-7.5 3.358-7.5 7.5s3.358 7.5 7.5 7.5z"/></g><path d="m385.803 277.119h-30.905c6.827 0 12.362 5.535 12.362 12.362v210.157c0 6.827-5.535 12.362-12.362 12.362h30.905c6.827 0 12.362-5.535 12.362-12.362v-210.157c0-6.828-5.535-12.362-12.362-12.362z" fill="#c6865c"/><path d="m183.887 323.477c0-8.534 6.918-15.453 15.453-15.453h113.32c8.534 0 15.453 6.918 15.453 15.453 0 8.534-6.918 15.453-15.453 15.453h-113.32c-8.534 0-15.453-6.919-15.453-15.453z" fill="#665e66"/><path d="m457.05 138.56c-13.4-6.39-32.95-12.06-54.73-12.06-27.26 0-51.04 7.65-63.62 15.93-2.85 1.88-6.12 2.83-9.39 2.86l-.01-.01c-81.71-75.05-146.6 0-146.6 0v.01c-3.27-.03-6.54-.98-9.4-2.86-12.58-8.28-36.36-15.93-63.62-15.93-21.78 0-41.33 5.67-54.73 12.06-4.92 2.34-9.97-3-7.37-7.78 23.37-43.05 86.02-130.78 208.42-130.78s185.05 87.73 208.42 130.78c2.6 4.78-2.45 10.12-7.37 7.78z" fill="#ffd064"/><g><path d="m464.421 130.775c-23.374-43.042-86.025-130.775-208.421-130.775-5.273 0-10.426.174-15.479.489 111.736 6.967 170.052 88.365 192.637 129.73 9.15 2.209 17.277 5.186 23.896 8.341 4.917 2.343 9.964-3.003 7.367-7.785z" fill="#ffc250"/></g><path d="m182.703 145.28c3.369.028 6.744-.92 9.687-2.854 12.587-8.273 36.359-15.925 63.61-15.925s51.023 7.652 63.61 15.925c2.943 1.934 6.318 2.882 9.687 2.854-1.143-20.05-33.74-145.28-73.297-145.28s-72.154 125.23-73.297 145.28z" fill="#df6b57"/></g><g/><g/><g/><g/><g/><g/><g/><g/><g/><g/><g/><g/><g/><g/><g/></svg>