<?xml version="1.0"?>
<svg xmlns="http://www.w3.org/2000/svg" xmlns:xlink="http://www.w3.org/1999/xlink" xmlns:svgjs="http://svgjs.com/svgjs" version="1.1" width="512" height="512" x="0" y="0" viewBox="0 0 512.021 512.021" style="enable-background:new 0 0 512 512" xml:space="preserve" class=""><g transform="matrix(1,0,0,1,0,0)"><g xmlns="http://www.w3.org/2000/svg"><path d="m13.122 6.499h489.635v32.728h-489.635z" fill="#1c0d05" data-original="#f4d7c8" style="" class=""/><g><g><circle cx="22.853" cy="22.864" fill="#e8ad8c" r="22.853" data-original="#e8ad8c" style="" class=""/></g><g><circle cx="489.163" cy="22.864" fill="#e8ad8c" r="22.853" data-original="#e8ad8c" style="" class=""/></g></g><g><g><path d="m45.707 22.864c0 12.619-10.231 22.851-22.851 22.851-9.192 0-17.118-5.424-20.741-13.247 1.317.247 2.686.371 4.076.371 12.62 0 22.851-10.231 22.851-22.851 0-3.428-.751-6.68-2.12-9.604 10.684 1.914 18.785 11.25 18.785 22.48z" fill="#1c0d05" data-original="#e19974" style="" class=""/></g><g><path d="m512.021 22.864c0 12.619-10.242 22.851-22.861 22.851-9.192 0-17.118-5.424-20.731-13.247 1.318.247 2.687.371 4.076.371 12.62 0 22.851-10.231 22.851-22.851 0-3.428-.762-6.68-2.12-9.604 10.684 1.914 18.785 11.25 18.785 22.48z" fill="#1c0d05" data-original="#e19974" style="" class=""/></g></g><path d="m256.008 6.499h-176.657v424.031c0 3.482 2.068 6.632 5.263 8.016l167.922 72.744c2.216.96 4.729.96 6.945 0l167.922-72.744c3.195-1.384 5.263-4.534 5.263-8.016v-424.031z" fill="#c8effe" data-original="#c8effe" style="" class=""/><path d="m432.66 6.497v424.029c0 3.49-2.059 6.639-5.26 8.018l-15.718 6.804c.257-.823.391-1.709.391-2.604v-436.247z" fill="#99e6fc" data-original="#99e6fc" style="" class=""/><path d="m432.666 378.652v51.878c0 3.482-2.068 6.632-5.263 8.016l-167.923 72.742c-2.215.96-4.729.96-6.945 0l-167.922-72.742c-3.195-1.384-5.263-4.534-5.263-8.016v-51.878l176.658 76.526z" fill="#fedba6" data-original="#fedba6" style="" class=""/><path d="m432.671 378.649v51.878c0 1.966-.659 3.819-1.801 5.311-.247.329-.525.648-.834.937-.751.731-1.637 1.338-2.635 1.77l-15.718 6.804c.257-.823.391-1.709.391-2.604v-55.172l20.586-8.924z" fill="#fece85" data-original="#fece85" style="" class=""/><g><g><path d="m272.999 373.921c-78.632 0-142.603-63.971-142.603-142.603s63.971-142.604 142.603-142.604c28.576 0 56.151 8.426 79.747 24.368 10.499 7.093 13.26 21.354 6.167 31.852-7.092 10.498-21.353 13.26-31.852 6.167-15.982-10.797-34.675-16.505-54.061-16.505-53.332 0-96.721 43.389-96.721 96.721s43.389 96.721 96.721 96.721c20.08 0 37.043-6.039 50.415-17.95 2.607-2.321 5.092-4.886 7.391-7.628 8.14-9.71 22.61-10.981 32.319-2.841 9.71 8.14 10.981 22.611 2.841 32.319-3.725 4.443-7.774 8.62-12.035 12.414-21.718 19.344-49.705 29.569-80.932 29.569z" fill="#e5caf3" data-original="#e5caf3" style="" class=""/></g></g><g><g fill="#d9b1ee"><path d="m179.303 255.398c-7.133-13.464-11.168-28.8-11.168-45.074 0-53.34 43.386-96.725 96.725-96.725 11.124 0 22.102 2.011 32.704 5.304 5.398 1.677 10.693 3.669 15.925 5.804 11.724 4.785 28.135 12.789 37.279-.764 2.007-2.975 3.222-6.248 3.705-9.573 9.058 7.432 11.117 20.669 4.436 30.561-7.092 10.499-21.348 13.268-31.847 6.166-15.985-10.798-34.678-16.5-54.06-16.5-53.34 0-96.725 43.386-96.725 96.725 0 8.307 1.05 16.377 3.026 24.076z" fill="#d9b1ee" data-original="#d9b1ee" style="" class=""/><path d="m365.96 331.938c-3.716 4.447-7.771 8.616-12.033 12.414-21.719 19.341-49.706 29.572-80.925 29.572-64.477 0-119.082-43.005-136.663-101.831 23.067 47.781 72.001 80.833 128.521 80.833 31.219 0 59.207-10.232 80.925-29.572 4.261-3.788 8.317-7.967 12.033-12.414 2.851-3.397 4.55-7.38 5.126-11.467.062.051.113.092.175.144 9.717 8.143 10.983 22.615 2.841 32.321z" fill="#d9b1ee" data-original="#d9b1ee" style="" class=""/></g></g></g></g></svg>
