<svg height="458pt" viewBox="-48 0 458 458.00005" width="458pt" xmlns="http://www.w3.org/2000/svg"><path d="m313.894531 0h-265.824219c-26.515624.144531-47.964843 21.625-48.070312 48.140625v361.746094c.121094 26.511719 21.578125 47.980469 48.09375 48.113281h276.179688c10.125.015625 19.832031-4.042969 26.925781-11.261719 7.097656-7.222656 10.992187-16.992187 10.800781-27.117187v-371.507813c-.125-26.515625-21.589844-47.980469-48.105469-48.113281zm26.046875 435.308594c-4.09375 4.273437-9.75 6.6875-15.667968 6.691406h-276.15625c-17.699219-.113281-32.019532-14.4375-32.117188-32.140625v-361.695313c.085938-17.699218 14.394531-32.039062 32.09375-32.164062h265.777344c17.703125.109375 32.023437 14.4375 32.128906 32.140625v371.597656c0 .082031-.050781.199219-.050781.28125.160156 5.703125-2.007813 11.222657-6.007813 15.289063zm0 0"/><path d="m321 47c0-4.417969-3.582031-8-8-8h-265c-4.417969 0-8 3.582031-8 8v331c0 4.417969 3.582031 8 8 8h265c4.417969 0 8-3.582031 8-8zm-15 322h-250v-314h250zm0 0"/><path d="m193.550781 405h-25.101562c-4.417969 0-8 3.582031-8 8s3.582031 8 8 8h25.101562c4.417969 0 8-3.582031 8-8s-3.582031-8-8-8zm0 0"/><path d="m98.457031 281.328125 80.132813 25.859375c1.582031.511719 3.289062.511719 4.875 0l80.082031-25.859375c3.285156-1.074219 5.492187-4.15625 5.453125-7.613281v-109.429688c.035156-3.457031-2.171875-6.539062-5.457031-7.613281l-80.132813-25.859375c-1.585937-.511719-3.296875-.511719-4.886718 0l-80.078126 25.859375c-3.28125 1.074219-5.488281 4.15625-5.445312 7.613281v109.429688c-.035156 3.457031 2.171875 6.539062 5.457031 7.613281zm10.542969-106.058594 64 20.699219v92.621094l-64-20.699219zm80 113.316407v-92.621094l64-20.699219v92.621094zm-8-141.75 54.109375 17.449218-54.109375 17.449219-54.109375-17.449219zm0 0"/></svg>