<svg id="Layer_1" enable-background="new 0 0 512.007 512.007" height="512" viewBox="0 0 512.007 512.007" width="512" xmlns="http://www.w3.org/2000/svg"><g><path d="m434.624 280.167c-8.017-.743-36.653.243-65.25 6.31-24.026 5.096-42.679 11.906-62.51 20.7-2.41-1.98-5.5-3.17-8.86-3.17h-84c-3.36 0-6.45 1.19-8.86 3.17-38.82-17.215-78.171-27.17-124.17-27.17-1.2 0-2.4.05-3.59.16-2.13-12.13 5.15-27.77 2.39-39.93-3.07-13.49-20.21-25.8-20.21-40.23s17.14-26.73 20.21-40.23c3.16-13.94-6.86-32.45-.8-45.02 6.17-12.79 26.96-16.45 35.72-27.43 8.81-11.03 7.79-32.1 18.82-40.91 10.98-8.77 31.28-3.11 44.06-9.28 12.58-6.07 20.78-25.52 34.71-28.69 13.5-3.07 29.29 10.83 43.72 10.83s30.22-13.9 43.72-10.83c13.94 3.17 22.13 22.62 34.71 28.69 12.78 6.17 33.08.51 44.06 9.28 11.03 8.81 10.01 29.88 18.82 40.91 8.77 10.98 29.55 14.64 35.72 27.43 6.06 12.57-3.96 31.08-.8 45.02 3.07 13.49 20.21 25.8 20.21 40.23s-17.14 26.73-20.21 40.23c-2.761 12.16 4.52 27.799 2.39 39.93z" fill="#f1cc76"/><path d="m434.624 280.167c-4.885-.453-23.901-.124-43.41 2.53-.49-1.64-.71-2.54-.59-2.53 2.13-12.13-5.15-27.77-2.39-39.93 3.07-13.5 20.21-25.8 20.21-40.23s-17.14-26.74-20.21-40.23c-3.16-13.94 6.86-32.45.8-45.02-6.17-12.79-26.95-16.45-35.72-27.43-8.81-11.03-7.79-32.1-18.82-40.91-10.98-8.77-31.28-3.11-44.06-9.28-8.15-3.93-14.46-13.49-21.69-20.59 10.61-3.88 21.38-10.28 30.98-8.1 13.94 3.17 22.13 22.62 34.71 28.69 12.78 6.17 33.08.51 44.06 9.28 11.03 8.81 10.01 29.88 18.82 40.91 8.77 10.98 29.55 14.64 35.72 27.43 6.06 12.57-3.96 31.08-.8 45.02 3.07 13.49 20.21 25.8 20.21 40.23s-17.14 26.73-20.21 40.23c-2.761 12.16 4.52 27.799 2.39 39.93z" fill="#ebb15d"/><path d="m312.004 318.006v52c0 7.801-6.355 14-14 14h-84c-7.648 0-14-6.202-14-14v-52c0-7.801 6.355-14 14-14h84c7.647 0 14 6.202 14 14z" fill="#696ead"/><path d="m312.004 318.006v52c0 7.801-6.355 14-14 14h-40c7.648 0 14-6.202 14-14v-52c0-7.801-6.355-14-14-14h40c7.647 0 14 6.202 14 14z" fill="#505795"/><path d="m205.144 380.836c-37.542 16.648-76.925 27.17-124.17 27.17-22.629 0-40.97-18.363-40.97-40.97v-46.06c0-21.124 16.113-38.929 37.38-40.81 8.017-.743 36.653.243 65.25 6.31 24.504 5.197 43.296 12.18 62.51 20.7-3.14 2.56-5.14 6.46-5.14 10.83v52c0 4.37 2 8.27 5.14 10.83z" fill="#9da0df"/><path d="m392.004 200.006c0 33.98-12.46 65.05-33.06 88.89-20.177 5.035-35.342 10.857-52.08 18.28-2.41-1.98-5.5-3.17-8.86-3.17h-84c-3.36 0-6.45 1.19-8.86 3.17-16.393-7.269-31.617-13.174-52.08-18.28-20.6-23.84-33.06-54.91-33.06-88.89 0-75.11 60.89-136 136-136s136 60.891 136 136z" fill="#e48c9b"/><path d="m392.004 200.006c0 33.98-12.46 65.05-33.06 88.89-20.177 5.035-35.342 10.857-52.08 18.28-3.989-3.277-7.688-3.17-11.21-3.17 29.57-24.95 48.35-62.28 48.35-104 0-66.92-48.34-122.56-112-133.89 83.513-14.903 160 49.338 160 133.89z" fill="#cc5b6f"/><path d="m472.004 320.976v46.06c0 22.589-18.332 40.97-40.97 40.97-46.374 0-86.042-10.262-124.17-27.17 3.14-2.56 5.14-6.46 5.14-10.83v-52c0-4.37-2-8.27-5.14-10.83 19.616-8.699 38.289-15.563 62.51-20.7 29.597-6.279 58.172-6.966 65.25-6.31 21.29 1.883 37.38 19.709 37.38 40.81z" fill="#9da0df"/><path d="m472.004 320.976v46.06c0 22.589-18.332 40.97-40.97 40.97-11.75 0-23.47-.7-35.09-2.09 16.385-5.405 28.06-20.887 28.06-38.88v-46.06c0-18.445-12.332-33.903-28.08-38.88 12.01-1.435 31.737-2.575 38.7-1.93 21.29 1.883 37.38 19.709 37.38 40.81z" fill="#8286c6"/><path d="m240.004 384.006c-25.51 30.618-42.3 68.705-46.9 110.1-1.156 10.35-14.56 13.29-20.44 5.45l-12-16.01c-4.92-6.56-14-8.33-21.03-4.12-24.033 14.426-23.897 14.98-28.13 14.98-8.582 0-14.194-9.178-10.09-16.86 14.959-28.017 32.981-54.522 53.94-79.01 19.194-4.959 33.568-10.506 49.79-17.7 2.41 1.98 5.5 3.17 8.86 3.17z" fill="#696ead"/><path d="m394.764 492.866-22.39-13.44c-7.03-4.21-16.11-2.44-21.03 4.12l-12 16.01c-5.953 7.938-19.276 4.805-20.44-5.45-4.51-40.548-20.853-78.837-46.9-110.1h26c3.36 0 6.45-1.19 8.86-3.17 15.878 7.041 30.309 12.666 49.79 17.7 21.286 24.871 39.299 51.539 54.1 79.3 5.536 10.379-6.643 20.622-15.99 15.03z" fill="#696ead"/><circle cx="296.004" cy="240.006" fill="#edebfd" r="24"/><circle cx="216.003" cy="160.006" fill="#edebfd" r="24"/><path d="m205.144 380.836c-12.448 5.52-23.294 9.989-38.79 14.62-4.13-7.72-6.35-16.42-6.35-25.45v-52c0-9.03 2.22-17.74 6.36-25.46 14.926 4.473 25.791 8.87 38.78 14.63-3.14 2.56-5.14 6.46-5.14 10.83v52c0 4.37 2 8.27 5.14 10.83z" fill="#8286c6"/><path d="m214.004 384.006h26c-6.34 7.61-12.1 15.64-17.25 24-8.868 0-12.106.25-17.51-1.04-23.806 9.991-48.318 16.919-72.91 20.9 1.924-2.563 9.961-14.072 23.02-29.33 19.194-4.959 33.568-10.506 49.79-17.7 2.41 1.98 5.5 3.17 8.86 3.17z" fill="#505795"/><path d="m379.673 427.866c-24.286-3.932-48.831-10.798-72.92-20.89-5.498 1.293-8.72 1.03-17.5 1.03-5.15-8.37-10.91-16.39-17.25-24h26c3.36 0 6.45-1.19 8.86-3.17 15.878 7.041 30.309 12.666 49.79 17.7 9.897 11.563 19.689 24.489 23.02 29.33z" fill="#505795"/><path d="m296.004 208.006c-17.645 0-32 14.355-32 32s14.355 32 32 32 32-14.355 32-32-14.356-32-32-32zm0 48c-8.822 0-16-7.178-16-16s7.178-16 16-16 16 7.178 16 16-7.178 16-16 16z"/><path d="m216.004 192.006c17.645 0 32-14.355 32-32s-14.355-32-32-32-32 14.355-32 32 14.355 32 32 32zm0-48c8.822 0 16 7.178 16 16s-7.178 16-16 16-16-7.178-16-16 7.177-16 16-16z"/><path d="m314.346 130.349-128 128c-3.124 3.125-3.124 8.189 0 11.314 3.126 3.124 8.189 3.123 11.314 0l128-128c3.124-3.125 3.124-8.189 0-11.314-3.124-3.123-8.189-3.123-11.314 0z"/><path d="m442.986 273.484c-.418-11.269-4.763-23.494-2.952-31.474 2.555-11.233 20.409-24.335 20.409-42.004 0-17.651-17.866-30.827-20.408-41.999-2.672-11.786 7.692-31.194.203-46.727-7.545-15.642-29.414-19.857-36.675-28.946-7.372-9.231-6.508-31.331-20.077-42.169-13.547-10.819-34.826-5.045-45.577-10.234-10.543-5.087-19.286-25.391-36.412-29.285-16.847-3.831-33.181 10.63-45.494 10.63-12.307 0-28.679-14.454-45.495-10.63-17.037 3.877-26 24.261-36.413 29.286-10.757 5.192-32.035-.58-45.575 10.233-13.57 10.839-12.702 32.934-20.079 42.172-7.349 9.209-29.083 13.206-36.674 28.945-7.482 15.518 2.864 34.992.205 46.72-2.554 11.233-20.409 24.335-20.409 42.004 0 17.649 17.867 30.828 20.408 42.002 1.814 7.989-2.531 20.162-2.951 31.476-21.342 5.385-37.017 24.565-37.017 47.492v46.061c0 27.041 21.935 48.97 48.97 48.97 18.187 0 36.142-1.604 53.784-4.756-15.064 19.553-28.471 40.166-40.406 62.528-2.497 4.678-2.985 10.035-1.377 15.085 3.823 11.998 17.811 17.205 28.532 10.771l22.237-13.343c3.526-2.118 8.049-1.231 10.517 2.06l12.004 16.006c10.236 13.647 32.846 8.131 34.789-9.366 4.203-37.828 18.96-73.353 42.741-102.983h24.417c23.78 29.63 38.538 65.156 42.741 102.982 1.981 17.842 24.744 22.76 34.79 9.366l12.002-16.004c2.467-3.29 6.987-4.179 10.517-2.061l22.388 13.432c16.552 9.937 36.325-8.452 27.162-25.651-11.952-22.431-25.399-43.139-40.562-62.821 17.643 3.153 35.598 4.757 53.784 4.757 27.041 0 48.97-21.935 48.97-48.97v-46.061c.001-22.912-15.656-42.103-37.017-47.494zm-375.423-73.478c0-10.704 16.557-23.26 20.012-38.462 3.515-15.504-5.806-34.164-1.396-43.313 4.541-9.411 24.942-13.6 34.767-25.913 9.853-12.337 9.482-33.198 17.562-39.651 8.043-6.424 28.228-1.416 42.544-8.326 14.115-6.811 22.73-25.754 33.008-28.094 9.865-2.24 25.787 11.028 41.945 11.028 16.009 0 32.161-13.248 41.946-11.028 10.331 2.349 18.809 21.244 33.006 28.093 14.229 6.87 34.524 1.921 42.545 8.327 8.107 6.475 7.663 27.257 17.562 39.652 9.797 12.262 30.236 16.521 34.766 25.91 4.427 9.185-4.931 27.717-1.395 43.32 3.456 15.194 20.011 27.738 20.011 38.456 0 10.705-16.557 23.261-20.012 38.459-2.573 11.338 1.542 23.365 2.43 33.596-16.4.226-32.813 1.777-48.974 4.634 14.364-22.833 22.115-49.403 22.115-76.688 0-79.401-64.598-144-144-144s-144 64.599-144 144c0 27.286 7.751 53.855 22.115 76.688-16.161-2.856-32.573-4.408-48.973-4.633.887-10.225 5.003-22.259 2.429-33.599-3.458-15.193-20.013-27.737-20.013-38.456zm146.441 176c-3.309 0-6-2.691-6-6v-52c0-3.309 2.691-6 6-6h84c3.309 0 6 2.691 6 6v52c0 3.275-2.662 6-6 6-10.266 0-73.9 0-84 0zm93.477-77.85c-2.872-1.377-6.086-2.149-9.478-2.149h-84c-3.392 0-6.606.772-9.478 2.149-15.164-6.718-30.919-12.19-46.989-16.361-19.061-22.934-29.533-51.877-29.533-81.789 0-70.579 57.421-128 128-128s128 57.421 128 128c0 29.912-10.473 58.855-29.534 81.789-16.071 4.171-31.827 9.644-46.988 16.361zm-256.968 81.496c-3.342-8.061-2.51-9.049-2.51-58.676 0-18.46 15.012-32.97 32.97-32.97 38.559 0 76.576 7.675 112.274 22.72-.802 2.28-1.243 4.729-1.243 7.28 0 57.734-.425 54.539 1.244 59.281-34.603 14.606-72.402 22.719-112.274 22.719-13.393 0-25.384-8.086-30.461-20.354zm134.639 113.571c-.344 3.108-4.497 3.654-6.087 1.532l-12.004-16.006c-7.403-9.868-20.965-12.528-31.548-6.179l-22.237 13.343c-3.008 1.803-6.444-1.538-4.809-4.603 14.734-27.604 31.918-52.668 51.336-75.629 15.204-4.078 30.131-9.359 44.723-15.825 5.692 2.729 9.808 2.149 19.224 2.149-21.255 29.865-34.523 64.538-38.598 101.218zm218.538-11.629c1.64 3.076-2.24 5.956-4.809 4.408l-22.389-13.433c-10.58-6.346-24.143-3.69-31.548 6.181l-12.002 16.004c-1.592 2.124-5.744 1.578-6.088-1.532-4.075-36.679-17.343-71.353-38.598-101.216 9.512 0 13.631.533 19.224-2.149 14.592 6.466 29.519 11.747 44.722 15.824 19.728 23.326 36.891 48.518 51.488 75.913zm60.314-114.557c0 18.282-14.843 32.97-32.97 32.97-37.357 0-75.075-7.017-112.274-22.719.802-2.28 1.244-4.73 1.244-7.281 0-57.734.425-54.537-1.243-59.28 35.673-15.035 73.69-22.72 112.273-22.72 18.053 0 32.97 14.6 32.97 32.97z"/></g></svg>