<svg id="Capa_1" enable-background="new 0 0 512 512" height="512" viewBox="0 0 512 512" width="512" xmlns="http://www.w3.org/2000/svg"><g><g><path d="m347.725 385.672 13.987-42.956c1.21-3.715 5.006-5.939 8.838-5.177 8.542 1.698 17.282-1.795 22.301-8.912l4.248-6.024c5.811-8.24 17.201-10.21 25.442-4.4 8.24 5.811 10.21 17.201 4.4 25.442l-46.1 65.378z" fill="#f9eae2"/></g><g><g><g><g><path d="m129.962 73.445c-41.625 10.878-72.343 48.735-72.343 93.77l-.012 30.236c-.006 14.41-2.961 28.71-9.027 41.781-.085.183-.169.366-.253.549-13.388 29.307 5.14 63.647 37.06 68.034 3.098.426 6.262.646 9.477.646h62.466v-201.253c0-18.201-12.941-30.328-27.368-33.763z" fill="#407093"/><g><path d="m260.744 239.781c-.084-.183-.168-.366-.253-.549-6.066-13.071-9.021-27.371-9.026-41.781l-.012-30.236c0-53.526-43.391-96.917-96.917-96.917-10.636 0-20.869 1.719-30.443 4.884 16.173 1.715 28.774 15.397 28.774 32.025v201.253h61.34c3.215 0 6.379-.22 9.477-.646 31.92-4.386 50.448-38.725 37.06-68.033z" fill="#365e7d"/></g><path d="m181.853 316.046c-7.963-4.186-12.997-12.386-13.003-21.383l-.042-64.496h-43.477v53.286c0 .815-.045 1.623-.134 2.421-.995 8.98-7.994 16.119-16.841 17.95-8.549 1.769-25.158 6.233-42.851 15.645 15.52 33.668 49.532 57.051 89.039 57.051 26.773 0 51.012-10.747 68.693-28.147-12.363-14.494-27.308-24.928-41.384-32.327z" fill="#f9eae2"/><path d="m175.646 319.004c14.539 7.642 30.021 18.608 42.476 34.058 10.734-9.171 19.474-20.61 25.458-33.587-17.698-9.417-34.313-13.883-42.865-15.652-8.847-1.83-15.846-8.97-16.841-17.95-.089-.798-.134-1.606-.134-2.421v-53.286h-20.845l.044 67.94c.005 8.793 4.925 16.808 12.707 20.898z" fill="#f5dbcc"/><g><g><path d="m79.83 169.266h18.887v44.442h-18.887c-12.274 0-22.224-9.952-22.221-22.227.004-12.27 9.951-22.215 22.221-22.215z" fill="#f5dbcc"/></g><g><path d="m229.241 169.266h-18.887v44.442h18.887c12.274 0 22.224-9.952 22.221-22.227-.003-12.27-9.951-22.215-22.221-22.215z" fill="#f9eae2"/></g></g><path d="m250.776 492.692v-66.039c0-36.987-13.56-63.59-31.412-82.581-16.545 16.676-39.468 27.012-64.82 27.012-37.301 0-69.359-22.358-83.553-54.399-32.352 15.634-70.97 47.585-70.97 110.415v49.244c0 19.693 15.964 35.656 35.656 35.656h202.066c7.638-3.089 13.033-10.563 13.033-19.308z" fill="#ac80dd"/><path d="m378.682 397.499-31.659-22.219c-4.964-3.484-11.811-2.292-15.306 2.664l-23.539 33.383c-5.85-52.5-40.565-80.368-70.083-94.636-5.474 12.355-13.614 23.26-23.677 32.008 16.393 18.391 28.588 43.726 28.588 78.401v64.54c0 11.244-9.115 20.359-20.359 20.359h56.118 8.542.002 1.383c1.051 0 2.075-.104 3.083-.258 11.404-1.27 21.816-7.347 28.51-16.84l60.423-85.691c2.674-3.792 1.767-9.036-2.026-11.711z" fill="#9d66d5"/><g><path d="m232.988 473.588h-7.754c-9.162 0-17.464-5.397-21.182-13.77-1.668-3.756-5.881-5.672-9.808-4.46l-36.812 11.362v36.439c0 4.801-3.829 8.699-8.599 8.829v.012h84.156c10.607 0 19.206-8.599 19.206-19.206-.001-10.607-8.6-19.206-19.207-19.206z" fill="#f9eae2"/><path d="m148.59 456.236h-78.03c-9.042 0-16.372-7.33-16.372-16.372v29.358c0 9.042 7.33 16.372 16.372 16.372h78.03c4.883 0 8.841 3.958 8.841 8.841v-29.358c0-4.883-3.958-8.841-8.841-8.841z" fill="#9d66d5"/></g></g></g><path d="m447.507 207.48v-171.563c0-17.769-12.656-32.579-29.445-35.917h-57.14c-20.11 0-36.413 16.303-36.413 36.413v170.571c0 20.11 16.303 36.413 36.413 36.413h57.14c16.789-3.338 29.445-18.147 29.445-35.917z" fill="#9bc4f9"/><path d="m475.566 0h-67.471c20.11 0 36.413 16.303 36.413 36.413v170.571c0 20.11-16.303 36.413-36.413 36.413h67.471c20.11 0 36.413-16.303 36.413-36.413v-170.571c0-20.11-16.303-36.413-36.413-36.413z" fill="#7fb2f9"/><path d="m421.506 159.13 26.001 18.891v-37.682l-.026-.081c-.379-1.166-.348-2.388.026-3.493v-33.246h-7.932c-2.404 0-4.535-1.548-5.278-3.835l-10.775-33.164c-1.661-5.113-8.895-5.113-10.556 0l-10.775 33.163c-.743 2.287-2.874 3.835-5.278 3.835h-34.87c-5.376 0-7.611 6.879-3.262 10.039l28.211 20.496c1.945 1.413 2.759 3.918 2.016 6.205l-10.775 33.163c-1.661 5.113 4.191 9.364 8.54 6.205l28.21-20.496c1.944-1.413 4.578-1.413 6.523 0z" fill="#eaf2ff"/><path d="m474.445 103.518h-29.938v72.323l5.209 3.785c4.349 3.16 10.201-1.092 8.54-6.205l-10.775-33.163c-.743-2.287.071-4.791 2.016-6.205l28.211-20.496c4.349-3.159 2.114-10.039-3.263-10.039z" fill="#dbe8f9"/></g></g><g><path d="m157.33 208.281v-61.838c-5.535 3.144-11.833 4.85-18.314 4.85h-29.013c-11.881 0-21.513 9.632-21.513 21.513v35.475c.383 25.316 15.003 47.166 36.203 57.929 18.215-11.746 32.29-34.936 32.637-57.929z" fill="#f9eae2"/></g><path d="m188.386 130.624c-8.627 0-16.894 3.461-22.948 9.607-3.606 3.661-7.897 6.487-12.572 8.369v59.681c-.358 23.688-13.174 44.353-32.188 55.73 9.902 5.925 21.484 9.333 33.864 9.333 36.153 0 65.507-29.039 66.052-65.063v-45.448c.001-17.789-14.419-32.209-32.208-32.209z" fill="#f5dbcc"/></g></svg>