<?xml version="1.0"?>
<svg xmlns="http://www.w3.org/2000/svg" xmlns:xlink="http://www.w3.org/1999/xlink" xmlns:svgjs="http://svgjs.com/svgjs" version="1.1" width="512" height="512" x="0" y="0" viewBox="0 0 504.488 504.488" style="enable-background:new 0 0 512 512" xml:space="preserve" class=""><g transform="matrix(-4.2862637970157366e-16,1,-1,-4.2862637970157366e-16,504.48791122436535,-0.000060081481677798365)"><g xmlns="http://www.w3.org/2000/svg"><path d="m182.598 504.488c-4.142 0-7.5-3.358-7.5-7.5v-98.7c0-4.142 3.358-7.5 7.5-7.5s7.5 3.358 7.5 7.5v98.7c0 4.142-3.358 7.5-7.5 7.5z" fill="#7fbd93" data-original="#7fbd93" style="" class=""/><path d="m496.941 190.145h-101.008c-4.142 0-7.5-3.358-7.5-7.5s3.358-7.5 7.5-7.5h101.008c4.142 0 7.5 3.358 7.5 7.5s-3.358 7.5-7.5 7.5z" fill="#7fbd93" data-original="#7fbd93" style="" class=""/><path d="m231.861 323.504c-6.366-6.366-15.076-9.958-23.42-10.016-.058-8.343-3.65-17.054-10.016-23.42-11.68-11.68-35.319-16.39-57.395.721-25.074 25.074-23.691 67.555-.568 90.678s67.269 22.841 90.677-.568c17.111-22.077 12.402-45.715.722-57.395z" fill="#abd4b9" data-original="#abd4b9" style="" class=""/><path d="m146.462 375.467c-23.123-23.123-24.922-59.474-5.432-84.678-2.209 1.712-4.403 3.637-6.568 5.802-25.095 25.095-25.095 65.781 0 90.876s65.781 25.095 90.876 0c2.164-2.164 4.089-4.359 5.801-6.568-25.203 19.489-61.554 17.691-84.677-5.432z" fill="#7fbd93" data-original="#7fbd93" style="" class=""/><path d="m387.42 134.509c-23.123-23.123-59.474-24.921-84.678-5.432-23.746 23.746-18.401 51.715-6.721 63.395 6.366 6.366 15.076 9.958 23.42 10.016.058 8.343 3.65 17.054 10.016 23.42 11.68 11.68 43.75 12.923 63.395-6.721 19.489-25.204 17.691-61.556-5.432-84.678z" fill="#abd4b9" data-original="#abd4b9" style="" class=""/><path d="m335.457 219.908c-6.366-6.366-9.958-15.076-10.016-23.42-8.343-.058-17.054-3.65-23.42-10.016-11.68-11.68-16.39-35.318.721-57.395-2.149 1.662-4.227 3.46-6.199 5.432-23.793 23.793-19.372 51.114-6.523 63.963 6.366 6.366 15.076 9.958 23.42 10.016.058 8.343 3.65 17.054 10.016 23.42 12.849 12.849 40.17 17.27 63.963-6.523 1.972-1.972 3.77-4.049 5.432-6.199-22.076 17.111-45.714 12.401-57.394.722z" fill="#7fbd93" data-original="#7fbd93" style="" class=""/><path d="m188.121 341.307c-1.919 0-3.839-.732-5.303-2.197-2.929-2.929-2.929-7.678 0-10.606l20.32-20.32c19.973-19.974 46.938-27.563 63.951-30.443l-43.386-43.386c-2.929-2.929-2.929-7.678 0-10.606 2.929-2.929 7.678-2.929 10.606 0l43.386 43.386c2.879-17.013 10.469-43.978 30.443-63.951l20.32-20.32c2.929-2.929 7.678-2.929 10.606 0 2.929 2.929 2.929 7.678 0 10.606l-20.32 20.32c-26.559 26.559-27.795 69.431-27.805 69.86-.087 4.014-3.32 7.247-7.334 7.334-.421.01-43.417 1.361-69.86 27.805l-20.32 20.32c-1.465 1.466-3.385 2.198-5.304 2.198z" fill="#7fbd93" data-original="#7fbd93" style="" class=""/><path d="m272.077 209.826c23.94-23.94 32.178-74.846-12.154-119.178-44.74-44.74-116.074-46.664-163.109-5.786-48.414 48.414-43.954 123.37.785 168.109 40.733 40.733 92.853 37.629 117.83 12.651 3.416-4.497 6.207-9.398 8.315-14.505l4.306-16.417c.243-2.075.374-4.15.388-6.213 15.548-.107 31.778-6.8 43.639-18.661z" fill="#abd4b9" data-original="#abd4b9" style="" class=""/><path d="m102.6 247.971c-44.74-44.74-46.664-116.074-5.785-163.109-2.121 1.844-4.197 3.768-6.215 5.786-46.757 46.757-46.757 122.566 0 169.323 44.332 44.332 95.238 36.094 119.178 12.154 2.044-2.044 3.922-4.225 5.652-6.502-25.816 19.431-72.096 23.081-112.83-17.652z" fill="#7fbd93" data-original="#7fbd93" style="" class=""/><path d="m245.421 175.829c-2.592-9.673-21.454-13.603-41.347-12.716.887-19.893-3.043-38.755-12.716-41.347s-22.507 11.778-31.686 29.449c-16.784-10.714-35.084-16.742-42.165-9.661s-1.053 25.381 9.661 42.165c-17.671 9.179-32.041 22.013-29.449 31.686s21.454 13.603 41.347 12.716c-.887 19.893 3.043 38.755 12.716 41.347s22.507-11.778 31.686-29.449c15.453 9.864 32.183 15.747 40.267 11.094 2.198-5.324 3.654-10.867 4.305-16.414-1.616-8.075-6.117-17.862-12.068-27.185 17.671-9.178 32.041-22.012 29.449-31.685z" fill="#7fbd93" data-original="#7fbd93" style="" class=""/><path d="m275.238 33.088c18.045 18.045 28.567 28.875 36.018 40.585 6.595-18.691 10.911-46.44-9.626-66.977-6.823-6.823-16.873-8.424-25.23-4.839-7.92 7.92-7.985 24.408-1.162 31.231z" fill="#cde2ff" data-original="#cde2ff" style="" class=""/><path d="m311.256 73.673c-3.604-10.304-11.973-28.54-30.018-46.585-6.823-6.823-8.424-16.873-4.839-25.23-3.86 1.656-7.371 4.385-10.007 8.299-6.181 9.176-4.569 21.458 3.224 29.311 18.039 18.177 26.3 36.498 29.794 46.647 1.017 2.954 5.082 3.19 6.456.384 1.667-3.405 3.611-7.786 5.39-12.826z" fill="#9ec8fc" data-original="#9ec8fc" style="" class=""/><path d="m12.649 295.677c20.537 20.537 63.158 13.444 72.977 3.626-10.304-3.604-28.54-11.973-46.585-30.018-6.823-6.823-16.873-8.424-25.23-4.839-6 6.001-7.985 24.408-1.162 31.231z" fill="#cde2ff" data-original="#cde2ff" style="" class=""/><path d="m85.626 299.303c-18.691 6.595-46.44 10.911-66.977-9.626-6.823-6.823-8.424-16.873-4.839-25.23-3.567 1.531-6.835 3.977-9.391 7.428-6.921 9.344-5.401 22.468 2.975 30.533 26.052 25.087 63.211 11.274 79.075 3.498 2.799-1.372 2.549-5.434-.399-6.449-.146-.051-.294-.102-.444-.154z" fill="#9ec8fc" data-original="#9ec8fc" style="" class=""/><path d="m465.944 133.664c-3.58-10.455-6.846-24.761-6.846-42.215 0-12.65-10.255-22.904-22.904-22.904-3.213 0-6.27.664-9.046 1.859-6.728 6.728-7.859 11.832-7.859 15.046 0 29.098 23.327 43.626 46.655 48.214z" fill="#cde2ff" data-original="#cde2ff" style="" class=""/><path d="m425.289 79.449c0-3.213.664-6.27 1.859-9.046-8.151 3.508-13.859 11.609-13.859 21.046 0 36.898 36.597 53.667 53.466 59.437 2.942 1.006 5.633-2.045 4.27-4.84-1.545-3.168-3.35-7.324-5.082-12.382-17.895-8.539-40.654-25.116-40.654-54.215z" fill="#9ec8fc" data-original="#9ec8fc" style="" class=""/><path d="m91.402 413.336c-3.213 0-6.27.664-9.046 1.859-5.497 5.497-7.859 11.832-7.859 15.046 0 12.65 10.255 22.904 22.904 22.904 17.454 0 34.286-.978 48.215.846-8.538-17.896-25.115-40.655-54.214-40.655z" fill="#cde2ff" data-original="#cde2ff" style="" class=""/><path d="m80.508 424.923c-.101-3.463.57-6.757 1.849-9.728-8.407 3.618-14.216 12.124-13.842 21.941.468 12.288 10.889 21.983 23.186 22.009 25.731.055 44.614 7.198 54.291 11.918 2.807 1.369 5.848-1.337 4.836-4.292-1.219-3.561-2.928-7.997-5.21-12.781-10.403-3.562-24.619-6.813-41.955-6.845-12.374-.023-22.794-9.854-23.155-22.222z" fill="#9ec8fc" data-original="#9ec8fc" style="" class=""/><path d="m154.741 191.342c-18.796-18.796-35.327-51.693-25.233-61.788s42.991 6.436 61.788 25.233c25.676-6.88 62.431-4.748 66.126 9.041s-27.07 34.013-52.746 40.893c-6.88 25.676-27.104 56.441-40.893 52.746s-15.922-40.448-9.042-66.125z" fill="#e3f5b5" data-original="#e3f5b5" style="" class=""/><path d="m203.359 109.766c13.789 3.695 15.922 40.45 9.042 66.126 13.88 13.88 26.51 35.439 28.111 49.837-9.843 18.208-44.188-3.605-60.307-19.724-25.673 6.879-74.981 3.107-62.566-19.411 10.301-10.03 28.577-19.728 44.827-24.082 6.879-25.676 27.103-56.441 40.893-52.746z" fill="#edf6ff" data-original="#edf6ff" style=""/><path d="m187.22 200.52c16.243 14.958 40.491 27.637 53.292 25.209.567 5.1-.238 9.31-2.878 11.951-10.094 10.094-42.991-6.436-61.788-25.233-25.676 6.88-62.431 4.748-66.126-9.042-1.357-5.063 1.943-10.992 7.919-16.811 3.522 13.107 37.431 17.594 62.826 12.09 2.423-.525 4.931.157 6.755 1.836z" fill="#cde2ff" data-original="#cde2ff" style="" class=""/></g></g></svg>
